<?xml version="1.0" encoding="UTF-8"?>
<svg width="607px" height="94px" viewBox="0 0 607 94" version="1.1" xmlns="http://www.w3.org/2000/svg" xmlns:xlink="http://www.w3.org/1999/xlink">
    <!-- Generator: Sketch 63.1 (92452) - https://sketch.com -->
    <title>Group 2</title>
    <desc>Created with Sketch.</desc>
    <defs>
        <rect id="path-1" x="0" y="0" width="614" height="74" rx="12"></rect>
        <filter x="-1.8%" y="-14.9%" width="106.2%" height="151.4%" filterUnits="objectBoundingBox" id="filter-2">
            <feOffset dx="8" dy="8" in="SourceAlpha" result="shadowOffsetOuter1"></feOffset>
            <feGaussianBlur stdDeviation="5" in="shadowOffsetOuter1" result="shadowBlurOuter1"></feGaussianBlur>
            <feColorMatrix values="0 0 0 0 0   0 0 0 0 0   0 0 0 0 0  0 0 0 0.15 0" type="matrix" in="shadowBlurOuter1"></feColorMatrix>
        </filter>
    </defs>
    <g id="Page-1" stroke="none" stroke-width="1" fill="none" fill-rule="evenodd">
        <g id="index" transform="translate(-833.000000, -659.000000)">
            <g id="Group-2" transform="translate(835.000000, 661.000000)">
                <g id="Rectangle">
                    <use fill="black" fill-opacity="1" filter="url(#filter-2)" xlink:href="#path-1"></use>
                    <use fill="#FFFFFF" fill-rule="evenodd" xlink:href="#path-1"></use>
                </g>
                <path d="M15.3833112,-1.52833832e-15 L295.930862,0 L295.930862,0 L324,39.7797057 L295.930862,74 L15.3833112,74 C10.0341988,74 8.09448133,73.4430463 6.13892578,72.3972038 C4.18337022,71.3513612 2.64863878,69.8166298 1.60279622,67.8610742 C0.556953667,65.9055187 7.67637969e-16,63.9658012 -1.32117026e-15,58.6166888 L-4.92498016e-16,15.3833112 C2.8615553e-16,10.0341988 0.556953667,8.09448133 1.60279622,6.13892578 C2.64863878,4.18337022 4.18337022,2.64863878 6.13892578,1.60279622 C8.09448133,0.556953667 10.0341988,8.88008579e-16 15.3833112,-1.52833832e-15 Z" id="Rectangle" fill="#1D3971"></path>
                <path d="M380.675,59.2 C380.95,59 382.725,57.7 383.8,57.2 C382.025,54.65 380.675,53.4 379.825,52.6 L382.7,52.6 L382.7,49.725 L380.1,49.725 L380.1,46.65 L383.475,46.65 L383.475,43.775 L380.1,43.775 L380.1,40.95 L382.375,40.95 L382.375,37.85 L367.675,37.85 C367.75,37.75 367.85,37.65 367.925,37.525 C368.1,37.475 368.5,37.4 368.5,37.075 C368.5,36.925 368.375,36.85 368.25,36.8 L364.675,35.625 C363.275,38.3 361.15,40.125 359.625,41.35 C360.275,41.575 361.575,42.1 362.8,43.075 C363.15,42.775 363.425,42.55 363.95,42.05 L363.95,43.775 L360.525,43.775 L360.525,46.65 L363.95,46.65 L363.95,49.725 L361.55,49.725 L361.55,52.6 L379.8,52.6 L377.1,54.5 C378.8,56.15 379.825,57.725 380.675,59.2 Z M372.725,43.775 L371.275,43.775 L371.275,40.95 L372.725,40.95 L372.725,43.775 Z M368.35,43.775 L366.9,43.775 L366.9,40.95 L368.35,40.95 L368.35,43.775 Z M377.1,43.775 L375.65,43.775 L375.65,40.95 L377.1,40.95 L377.1,43.775 Z M372.725,49.725 L371.275,49.725 L371.275,46.65 L372.725,46.65 L372.725,49.725 Z M368.35,49.725 L366.9,49.725 L366.9,46.65 L368.35,46.65 L368.35,49.725 Z M377.1,49.725 L375.65,49.725 L375.65,46.65 L377.1,46.65 L377.1,49.725 Z M363.325,59.425 C364.35,58.375 365.825,56.35 366.575,54.975 C367.025,54.9 367.2,54.875 367.2,54.6 C367.2,54.375 367,54.275 366.775,54.15 L363.975,52.75 C363.3,54.325 361.725,56.3 360.25,57.425 C361.425,57.9 362.45,58.475 363.325,59.425 Z M374.225,58.9 C375.325,58.425 375.675,58.325 377.625,57.75 C377.425,57.1 376.775,54.775 375.625,53.1 L372.4,54 C373.1,55.475 373.6,56.725 374.225,58.9 Z M368.45,59.175 C369.6,58.775 370.7,58.45 372.1,58.2 C371.75,56.35 371.35,54.95 370.5,53.3 L367.275,54.15 C368.125,56.275 368.35,58.4 368.45,59.175 Z M394.175,58.85 L394.175,51.225 C394.775,51.85 395.15,52.2 395.925,52.85 C396.6,51.625 397.025,51.125 397.75,50.45 C397.05,49.875 395.825,48.875 394.525,46.9 L397.6,46.9 L397.6,43.675 L394.175,43.675 L394.175,37 C394.4,36.925 394.8,36.75 394.8,36.45 C394.8,36.1 394.425,36.075 394.1,36.05 L390.7,35.85 L390.7,41.55 C390.425,40.525 389.75,38.85 389.175,37.725 L386.4,38.725 C387.25,40.45 387.65,42.05 387.85,43.15 C388.425,42.825 389.2,42.375 390.7,41.85 L390.7,43.675 L386.6,43.675 L386.6,46.9 L390.4,46.9 C389.4,50.1 387.6,52.2 385.8,53.85 C386.45,54.15 387.225,54.5 388.75,55.925 C389.25,55.4 389.775,54.825 390.7,53.425 L390.7,58.85 L394.175,58.85 Z M407.275,58.8 L407.275,52.075 L409.775,51.425 L409.175,48.375 L407.275,48.85 L407.275,37.075 C407.525,36.925 407.8,36.75 407.8,36.55 C407.8,36.275 407.45,36.25 407.25,36.225 L403.725,35.925 L403.725,40.5 C403.05,39.65 401.95,38.625 400.725,37.65 L398.65,40.025 C399.425,40.65 401.075,42.15 401.75,43.075 C402.4,42.25 402.875,41.7 403.725,41 L403.725,49.75 L397.175,51.425 L397.75,54.625 L403.725,53.025 L403.725,58.8 L407.275,58.8 Z M397.175,43.075 C397.9,41.375 398.35,39.9 398.55,39.175 C398.775,39.05 399.1,38.875 399.1,38.675 C399.1,38.5 398.825,38.4 398.6,38.35 L395.7,37.575 C395.325,39.375 394.725,41.25 394.425,42.1 C395.55,42.3 396.2,42.525 397.175,43.075 Z M401.425,49.425 C402.3,48.475 402.975,47.75 403.6,47.125 C402.625,45.775 401.725,44.85 400.4,43.65 L398.35,45.975 C399.475,46.95 400.625,48.25 401.425,49.425 Z M428.625,59.025 C429.05,57.65 429.95,55.525 430.5,54.475 C427.1,54.4 423.425,52.975 423.425,50.075 C423.425,46.025 428.775,40.475 434.95,40.575 L434.25,36.375 C431.9,37.125 427.85,37.8 424.225,38.2 C419.1,38.775 416.925,38.775 413.1,38.775 L413.675,43.475 C416.1,42.925 419.125,42.3 424.025,41.9 C423,42.55 419.425,45.875 419.425,50.5 C419.425,56.475 426.6,58.475 428.625,59.025 Z M433.825,46.525 C434.6,45.825 435.025,45.45 435.65,44.975 C435.15,44.2 434.125,42.975 433.425,42.35 L431.6,43.7 C432.625,44.825 432.9,45.15 433.825,46.525 Z M431.2,48.3 C432.075,47.575 432.425,47.3 433.125,46.8 C432.625,46.025 431.55,44.775 430.8,44.125 L428.975,45.475 C430,46.6 430.25,46.925 431.2,48.3 Z M459.1,58.7 C461.275,58.7 461.8,54.625 461.975,53.375 C460.725,52.8 459.825,51.85 459.25,51.225 C459.2,51.5 458.975,52.925 458.75,52.925 C458.575,52.925 458.125,51.5 458.025,51.2 C457.425,49.325 457,47.075 456.8,43.65 L461.25,43.65 L461.25,40.65 L459.05,40.65 C459.725,40.175 460.8,39.55 461.25,39.3 C460.975,38.725 460.05,37.225 459.25,36.35 L456.825,37.825 C457.775,39.075 457.875,39.225 458.7,40.65 L456.725,40.65 L456.725751,40.3235162 C456.729132,39.7654959 456.747727,38.8636364 456.85,37.125 C457.425,36.775 457.55,36.725 457.55,36.525 C457.55,36.25 457.275,36.25 457,36.225 L453.375,36 C453.330556,36.6888889 453.305864,37.3185185 453.300926,38.2049383 L453.3,38.55 C453.3,39.575 453.325,40.275 453.35,40.65 L447.4,40.65 L447.4,43.65 L453.525,43.65 C454.475,55.525 457.725,58.7 459.1,58.7 Z M446.25,39.25 L446.25,36.625 L439.525,36.625 L439.525,39.25 L446.25,39.25 Z M446.825,42.525 L446.825,39.925 L438.45,39.925 L438.45,42.525 L446.825,42.525 Z M446.25,45.775 L446.25,43.25 L439.525,43.25 L439.525,45.775 L446.25,45.775 Z M448.25,58.775 C448.525,58.775 448.575,58.45 448.675,57.9 C450.275,57.35 452.85,56.6 454.45,56.075 C454.4,55.7 454.325,55.35 454.325,54.475 C454.325,53.675 454.375,53.35 454.45,52.925 C453.65,53.225 453.05,53.45 452.1,53.725 L452.1,49.275 L453.375,49.275 L453.375,46.225 L447.475,46.225 L447.475,49.275 L448.85,49.275 L448.85,54.575 C447.775,54.8 447.425,54.875 446.85,55 L447.75,58.225 C447.8,58.425 447.95,58.775 448.25,58.775 Z M446.25,49.125 L446.25,46.5 L439.525,46.5 L439.525,49.125 L446.25,49.125 Z M442.15,59.025 L442.15,57.625 L443.875,57.625 L443.875,58.575 L446.825,58.575 L446.825,49.9 L439.05,49.9 L439.05,59.025 L442.15,59.025 Z M443.875,54.7 L442.15,54.7 L442.15,52.85 L443.875,52.85 L443.875,54.7 Z M474.625,58.6 C479.675,58.6 483.925,55.125 486.775,50.5 C485.6,49.425 484.5,48.05 483.875,47.225 C483.2,48.625 479.425,54.4 475.15,54.4 C473.225,54.4 472.675,53.35 472.675,47.675 C472.675,44.65 472.875,40.7 473.475,37.75 C473.775,37.625 473.95,37.55 473.95,37.325 C473.95,37.05 473.75,37.025 473.375,36.975 L468.825,36.3 C468.875,37.025 468.875,37.875 468.875,38.6 C468.875,39.833871 468.640869,45.7971904 468.625764,47.4947921 L468.625,47.65 C468.625,53.9 469.075,58.6 474.625,58.6 Z M506.85,58.9 C507.1,58.075 507.525,56.625 508.725,54.4 C507.4,54.325 501.75,54.025 501.75,49.875 C501.75,46.625 506,40.35 513.15,40.425 L512.425,36.275 C506.75,38.05 496.775,38.75 493.1,38.75 C492.3,38.75 491.775,38.7 491.225,38.675 L491.75,43.375 C494,42.8 500.125,42 502.075,41.9 C501.1,42.7 497.65,45.575 497.65,50.175 C497.65,55.55 502.475,57.875 506.85,58.9 Z M529.325,58.75 C532.3,56.8 534.175,53.65 534.85,52.4 C536.5,53.525 537.125,54.15 537.75,54.775 C538.85,52.95 538.975,52.75 540.175,51.175 C539.05,50 537.55,49.1 536.4,48.5 C536.9,46.875 537.225,45.75 537.45,43.95 C537.625,43.95 537.975,43.95 537.975,43.625 C537.975,43.5 537.925,43.425 537.65,43.325 L533.475,41.725 C533.475,43.475 533.275,45.175 532.85,46.925 C530.275,45.925 529.325,45.775 528.525,45.625 C528.85,44.6 530.45,40.7 532.1,38.525 L529.6,36.4 C528.525,36.95 525.475,37.925 520.525,37.925 L521.375,42.125 C523.075,41.9 525.15,41.45 526.425,41.1 C526.325,41.425 526.225,41.625 525.65,43.375 C525.325,44.325 525.025,45.05 524.85,45.475 C520.15,45.275 516.725,48.9 516.725,52.4 C516.725,54.925 518.95,56.6 520.925,56.6 C522.3,56.6 523.5,55.725 525.15,52.9 C525.475,52.35 526.8,49.6 527.1,49 C529.1,49.525 530.175,49.9 531.525,50.525 C530.85,51.775 528.45,55.125 526.075,56.125 C527.45,56.925 528.225,57.5 529.325,58.75 Z M520.65,52.975 C520.525,52.975 520.275,52.925 520.275,52.475 C520.275,50.75 521.95,49.15 523.175,49.175 C522.65,50.575 521.05,52.975 520.65,52.975 Z M554.575,58.625 C558.9,58.625 564.125,56.225 564.125,50.725 C564.125,46.3 560.625,44.15 557.225,44.15 C555.875,44.15 554.65,44.425 554.225,44.525 C554.775,43.95 558.65,40.075 560.35,38.95 L558.35,36.225 C554.05,37.9 546.825,37.825 545.85,37.8 L546.45,41.725 C551.45,41.225 552.3,41.025 553.1,40.85 C551.425,43.075 545.85,48.575 542.975,50.575 L545.975,53.5 C549.45,49.875 551.85,47.4 556.075,47.4 C559.95,47.4 560.15,50.45 560.15,51.05 C560.15,51.25 560.15,53.175 558.5,54 C557.925,51.65 555.475,50.325 553.125,50.325 C550.525,50.325 548.225,51.85 548.225,54.325 C548.225,57.35 551.35,58.625 554.575,58.625 Z M554.025,55.675 C553.175,55.675 551.775,55.3 551.775,54.35 C551.775,53.925 551.975,53.45 552.825,53.45 C553.525,53.45 554.875,53.775 555.275,55.475 C555.025,55.55 554.6,55.675 554.025,55.675 Z" id="無料で試してみる" fill="#2D2779" fill-rule="nonzero"></path>
                <g id="Group-12" transform="translate(34.000000, 14.000000)" fill="#F8FF00" fill-rule="nonzero">
                    <path d="M3.35323209,11.9264556 L3.35323209,7.74668029 C3.70462988,8.19611849 3.97378563,8.57609806 4.16069935,8.886619 L4.16069935,8.886619 L5.13638895,7.50153218 C5.08405311,7.44433095 4.84854183,7.20326864 4.4298551,6.77834525 C4.48966749,6.71297242 4.5906009,6.59448417 4.73265532,6.42288049 C4.87470975,6.25127681 5.00928762,6.09601634 5.13638895,5.95709908 C5.26349028,5.81818182 5.39059161,5.68743616 5.51769293,5.5648621 L5.51769293,5.5648621 L4.46349957,4.59652707 C4.2691093,5.02145046 3.99621527,5.49948927 3.64481749,6.03064351 L3.64481749,6.03064351 L3.38687656,5.81001021 C3.97004735,4.80490296 4.4298551,3.79979571 4.76629979,2.79468846 L4.76629979,2.79468846 L3.83546948,2.12053115 L3.56631372,2.19407559 L3.35323209,2.19407559 L3.35323209,0.024514811 L1.71586792,0.024514811 L1.71586792,2.19407559 L0.325229868,2.19407559 L0.325229868,3.82431052 L2.725202,3.82431052 C2.38875731,4.52706844 1.97941627,5.18896834 1.49717888,5.81001021 C1.01494148,6.43105209 0.51588186,6.93360572 0,7.31767109 C0.127101328,7.48110317 0.282239713,7.74463739 0.465415156,8.10827375 C0.648590599,8.47191011 0.777561064,8.77630235 0.852326551,9.02145046 C1.09905266,8.80898876 1.38689978,8.51889683 1.71586792,8.15117467 L1.71586792,8.15117467 L1.71586792,11.9264556 L3.35323209,11.9264556 Z M4.84480355,11.938713 C5.33825576,11.5137896 5.76441904,11.0214505 6.12329338,10.4616956 C6.48216771,9.90194076 6.76440743,9.340143 6.97001252,8.77630235 C7.1756176,8.2124617 7.34010168,7.5566905 7.46346473,6.80898876 C7.58682778,6.06128703 7.67093896,5.37895812 7.71579825,4.76200204 C7.76065754,4.14504597 7.79430201,3.41573034 7.81673166,2.57405516 L7.81673166,2.57405516 L9.1064363,2.57405516 C9.06905356,5.08273749 9.01671772,6.87027579 8.94942878,7.93667007 C8.88213984,9.00306435 8.77372989,9.63432074 8.62419891,9.83043922 C8.51205068,10.0102145 8.36625798,10.1001021 8.18682082,10.1001021 C7.6784155,10.1001021 7.23729913,10.0837589 6.8634717,10.0510725 C7.00552612,10.3125638 7.1251509,10.6230848 7.22234603,10.9826353 C7.31954117,11.3421859 7.37561528,11.6567926 7.39056838,11.9264556 C8.22046528,11.9427988 8.78120644,11.9141982 9.07279183,11.8406537 C9.31951794,11.7834525 9.5288613,11.691522 9.70082192,11.5648621 C9.87278254,11.4382022 10.0372666,11.2359551 10.1942741,10.9581205 C10.4036175,10.6230848 10.5494102,9.82635342 10.6316522,8.56792646 C10.7138943,7.30949949 10.7811832,5.04187947 10.8335191,1.76506639 C10.8409956,1.60980592 10.8447339,1.30745659 10.8447339,0.858018386 L10.8447339,0.858018386 L4.60929227,0.858018386 L4.60929227,2.57405516 L6.11207855,2.57405516 C6.10460201,3.113381 6.09338718,3.5607763 6.07843408,3.91624106 C6.06348099,4.27170582 6.03544393,4.69662921 5.99432291,5.19101124 C5.95320189,5.68539326 5.89899692,6.10623085 5.83170798,6.453524 C5.76441904,6.80081716 5.66909304,7.18283963 5.54572999,7.59959142 C5.42236694,8.01634321 5.27657424,8.38202247 5.10835189,8.69662921 C4.94012955,9.01123596 4.73078618,9.3258427 4.4803218,9.64044944 C4.22985742,9.95505618 3.94387943,10.2390194 3.62238784,10.4923391 C4.10088696,10.8764045 4.50835886,11.3585291 4.84480355,11.938713 Z M13.2286849,11.9632278 C13.5352234,11.6527068 13.8473693,11.2706844 14.1651226,10.8171604 C14.4828759,10.3636364 14.7464243,9.91215526 14.9557676,9.46271706 L14.9557676,9.46271706 L13.408122,8.97242084 L16.1893982,8.97242084 L15.1127751,9.62206333 C15.7183756,10.3983657 16.1445389,11.0357508 16.391265,11.5342186 L16.391265,11.5342186 L17.3333101,10.9213483 C17.5127473,11.0194076 17.7370437,11.174668 18.0061995,11.3871297 C18.2753552,11.5995914 18.4772221,11.7834525 18.6117999,11.938713 C19.1127287,10.9826353 19.4454351,9.60163432 19.6099192,7.79570991 L19.6099192,7.79570991 L20.9781276,7.79570991 L20.9781276,9.9897855 C20.9781276,10.0796731 20.9613054,10.1430031 20.9276609,10.1797753 C20.8940164,10.2165475 20.8360732,10.2349336 20.7538311,10.2349336 C20.1781369,10.2349336 19.7968329,10.226762 19.6099192,10.2104188 C19.8641218,10.7742594 20.0173911,11.3462717 20.0697269,11.9264556 C21.0117721,11.9427988 21.6547553,11.8365679 21.9986765,11.607763 C22.2154964,11.4688458 22.3687657,11.2768131 22.4584842,11.031665 C22.5482028,10.7865169 22.5930621,10.4473953 22.5930621,10.0143003 L22.5930621,10.0143003 L22.5930621,0.527068437 L18.1519922,0.527068437 L18.1519922,5.17262513 C18.1519922,7.51787538 17.9463871,9.24616956 17.5351769,10.3575077 C17.3034039,10.0061287 16.9482679,9.54443309 16.4697687,8.97242084 L16.4697687,8.97242084 L17.7482586,8.97242084 L17.7482586,7.39121553 L17.1202285,7.39121553 L17.1202285,2.95403473 L17.8716216,2.95403473 L17.8716216,1.37282942 L17.1202285,1.37282942 L17.1202285,0.147088866 L15.5950125,0.147088866 L15.5950125,1.37282942 L14.5296043,1.37282942 L14.5296043,0.147088866 L13.0380329,0.147088866 L13.0380329,1.37282942 L12.1744915,1.37282942 L12.1744915,2.95403473 L13.0380329,2.95403473 L13.0380329,7.39121553 L12.0511285,7.39121553 L12.0511285,8.97242084 L13.3744776,8.97242084 C13.0230798,9.74872319 12.5296276,10.3901941 11.8941209,10.8968335 C12.3726201,11.1910112 12.8174747,11.546476 13.2286849,11.9632278 Z M20.9781276,3.34627171 L19.7220674,3.34627171 L19.7220674,2.18181818 L20.9781276,2.18181818 L20.9781276,3.34627171 Z M15.5950125,3.48110317 L14.5296043,3.48110317 L14.5296043,2.95403473 L15.5950125,2.95403473 L15.5950125,3.48110317 Z M15.5950125,5.41777324 L14.5296043,5.41777324 L14.5296043,4.85393258 L15.5950125,4.85393258 L15.5950125,5.41777324 Z M20.9781276,6.17773238 L19.7108526,6.17773238 C19.7183291,5.94075587 19.7220674,5.60572012 19.7220674,5.17262513 L19.7220674,4.93973442 L20.9781276,4.93973442 L20.9781276,6.17773238 Z M15.5950125,7.39121553 L14.5296043,7.39121553 L14.5296043,6.77834525 L15.5950125,6.77834525 L15.5950125,7.39121553 Z M25.2685985,11.9754852 C26.7713848,11.5505618 27.9825857,11.031665 28.9022012,10.4187947 L28.9022012,10.4187947 L28.0162302,9.9897855 L30.7414322,9.9897855 L29.866676,10.5658836 C31.1451658,11.0561798 32.1283319,11.5178754 32.8161744,11.9509704 L32.8161744,11.9509704 L34.7002647,11.1052094 C34.132047,10.8192033 33.2498142,10.4473953 32.0535664,9.9897855 L32.0535664,9.9897855 L33.3881304,9.9897855 L33.3881304,5.68743616 L33.5227083,5.67517875 C33.8367233,5.64249234 34.0759729,5.52808989 34.2404569,5.3319714 C34.4124176,5.1031665 34.5208275,4.57201226 34.5656868,3.73850868 C34.5656868,3.63227783 34.5694251,3.48518897 34.5769016,3.29724208 L34.5769016,3.29724208 L31.447966,3.29724208 L31.447966,2.91726251 L33.8255085,2.91726251 L33.8255085,0.478038815 L31.447966,0.478038815 L31.447966,0 L29.8778908,0 L29.8778908,0.478038815 L28.8685567,0.478038815 L28.8685567,0 L27.3657704,0 L27.3657704,0.478038815 L24.8424352,0.478038815 L24.8424352,1.50766088 L27.3657704,1.50766088 L27.3657704,1.88764045 L25.2237392,1.88764045 C24.9770131,2.8845761 24.7265487,3.69356486 24.4723461,4.31460674 L24.4723461,4.31460674 L25.9751324,4.41266599 L26.0087768,4.32686415 L26.692881,4.32686415 C26.2143819,4.69458631 25.3246726,4.94790603 24.0237532,5.08682329 C24.158331,5.25025536 24.3059929,5.47701736 24.4667387,5.7671093 C24.6274845,6.05720123 24.7415018,6.30030644 24.8087908,6.49642492 C25.1228058,6.45556691 25.3770085,6.41470889 25.5713987,6.37385087 L25.5713987,6.37385087 L25.5713987,9.9897855 L26.7489552,9.9897855 C25.9788706,10.2839632 25.0854231,10.5127681 24.0686124,10.6762002 C24.4648695,11.0194076 24.8648649,11.4525026 25.2685985,11.9754852 Z M29.8778908,1.88764045 L28.8685567,1.88764045 L28.8685567,1.50766088 L29.8778908,1.50766088 L29.8778908,1.88764045 Z M32.3227222,1.88764045 L31.447966,1.88764045 L31.447966,1.50766088 L32.3227222,1.50766088 L32.3227222,1.88764045 Z M27.3209111,3.29724208 L26.3564363,3.29724208 L26.4685846,2.91726251 L27.3657704,2.91726251 C27.3508173,3.09703779 27.3358642,3.22369765 27.3209111,3.29724208 L27.3209111,3.29724208 Z M29.8778908,3.29724208 L28.8573419,3.29724208 C28.8573419,3.25638407 28.859211,3.19305414 28.8629493,3.1072523 C28.8666876,3.02145046 28.8685567,2.95812053 28.8685567,2.91726251 L28.8685567,2.91726251 L29.8778908,2.91726251 L29.8778908,3.29724208 Z M29.8778908,5.07456588 L28.218097,5.07456588 C28.3975341,4.86210419 28.5395886,4.61287028 28.6442602,4.32686415 L28.6442602,4.32686415 L29.8778908,4.32686415 L29.8778908,5.07456588 Z M32.2666481,5.07456588 L31.447966,5.07456588 L31.447966,4.32686415 L32.9507523,4.32686415 C32.9283226,4.43309499 32.905893,4.51481103 32.8834634,4.57201226 C32.8386041,4.62921348 32.7638386,4.6578141 32.6591669,4.6578141 C32.5395421,4.6659857 32.3563667,4.65372829 32.1096406,4.62104188 C32.1619764,4.73544433 32.2143122,4.886619 32.2666481,5.07456588 L32.2666481,5.07456588 Z M31.6946921,6.42288049 L27.1863333,6.42288049 L27.1863333,6.06741573 L31.6946921,6.06741573 L31.6946921,6.42288049 Z M31.6946921,7.69765066 L27.1863333,7.69765066 L27.1863333,7.35444331 L31.6946921,7.35444331 L31.6946921,7.69765066 Z M31.6946921,8.99693565 L27.1863333,8.99693565 L27.1863333,8.62921348 L31.6946921,8.62921348 L31.6946921,8.99693565 Z M37.0730009,12 C37.7982261,11.1501532 38.2842018,9.93258427 38.5309279,8.34729316 L38.5309279,8.34729316 L40.6056701,8.34729316 L40.6056701,11.7548519 L42.2878936,11.7548519 L42.2878936,8.34729316 L44.3289914,8.34729316 L44.3289914,9.85495403 C44.3289914,10.0510725 44.2355345,10.1491318 44.0486208,10.1491318 C43.315919,10.1491318 42.811252,10.1368744 42.5346197,10.1123596 C42.8262051,10.7497446 43.001904,11.3299285 43.0617164,11.8529111 C44.1757221,11.8692543 44.9271153,11.7671093 45.3158958,11.546476 C45.5626219,11.4075587 45.7383208,11.2093973 45.8429925,10.9519918 C45.9476642,10.6945863 46,10.3370787 46,9.87946885 L46,9.87946885 L46,0.82124617 L37.0954305,0.82124617 L37.0954305,5.30745659 C37.0954305,5.85495403 37.0823466,6.33094995 37.0561786,6.73544433 C37.0300107,7.13993871 36.9758057,7.60572012 36.8935637,8.13278856 C36.8113217,8.659857 36.6748746,9.15219612 36.4842227,9.60980592 C36.2935707,10.0674157 36.0487137,10.4719101 35.7496517,10.8232891 C35.9365655,10.9295199 36.1702076,11.1092952 36.4505782,11.3626149 C36.7309488,11.6159346 36.938423,11.8283963 37.0730009,12 Z M40.6056701,3.70173647 L38.7552243,3.70173647 L38.7552243,2.54954035 L40.6056701,2.54954035 L40.6056701,3.70173647 Z M44.3289914,3.70173647 L42.2878936,3.70173647 L42.2878936,2.54954035 L44.3289914,2.54954035 L44.3289914,3.70173647 Z M44.3289914,6.63125638 L42.2878936,6.63125638 L42.2878936,5.39325843 L44.3289914,5.39325843 L44.3289914,6.63125638 Z M40.6056701,6.63125638 L38.7215799,6.63125638 C38.7440095,6.18998979 38.7552243,5.7773238 38.7552243,5.39325843 L38.7552243,5.39325843 L40.6056701,5.39325843 L40.6056701,6.63125638 Z" id="初期費用"></path>
                    <path d="M36.5961306,46 L36.5961306,40.7139588 L43.452237,40.7139588 L43.452237,43.4324943 C43.452237,43.8718535 43.452237,44.173913 42.7992745,44.173913 C42.4365175,44.173913 42.0616687,44.1052632 41.7110036,44.0091533 C41.904474,44.3798627 42.1342201,44.819222 42.2188634,45.9313501 C42.4002418,45.9588101 42.4848851,45.9588101 42.6783555,45.9588101 C44.2019347,45.9588101 45,45.6155606 45,44.0778032 L45,34 L35,34 L35,46 L36.5961306,46 Z M43.452237,39.0800915 L40.7678356,39.0800915 L40.7678356,35.6475973 L43.452237,35.6475973 L43.452237,39.0800915 Z M39.2321644,39.0800915 L36.5961306,39.0800915 L36.5961306,35.6475973 L39.2321644,35.6475973 L39.2321644,39.0800915 Z" id="円"></path>
                    <path d="M18.0885682,47 C21.9358447,47 24.9013243,45.8671875 26.9850071,43.6015625 C29.0444931,41.3359375 30.3241771,37.6354167 30.8240592,32.5 C31.3239413,27.3645833 30.7586264,23.6640625 29.1281145,21.3984375 C27.4976026,19.1328125 24.7587084,18 20.9114318,18 C17.0641553,18 14.1047248,19.1328125 12.0331405,21.3984375 C9.96155612,23.6640625 8.67582288,27.3645833 8.17594078,32.5 C7.67605867,37.6354167 8.24137358,41.3359375 9.8718855,43.6015625 C11.5023974,45.8671875 14.2412916,47 18.0885682,47 Z M18.4927143,41.5625 C16.6449707,41.5625 15.3670069,40.8576389 14.6588228,39.4479167 C13.9506388,38.0381944 13.7829996,35.577474 14.1559053,32.0657552 C14.528811,28.5540365 15.2197211,26.0870226 16.2286355,24.6647135 C17.2375499,23.2424045 18.665879,22.53125 20.5136225,22.53125 C22.3613661,22.53125 23.6313943,23.2486979 24.323707,24.6835938 C25.0450892,26.093316 25.2193275,28.5540365 24.8464218,32.0657552 C24.4735161,35.577474 23.7832743,38.0381944 22.7756964,39.4479167 C21.7681186,40.8576389 20.3404579,41.5625 18.4927143,41.5625 Z" id="０"></path>
                </g>
                <g id="Group-10-Copy" transform="translate(110.000000, 14.000000)" fill="#F8FF00" fill-rule="nonzero">
                    <path d="M31.6406872,11.9143731 L31.6406872,9.9204893 C32.7044486,10.8175331 33.9559327,11.4454638 35.3951393,11.8042813 C35.543753,11.5351682 35.7314756,11.2395515 35.9583071,10.9174312 C36.1851386,10.5953109 36.3924156,10.3404689 36.5801383,10.1529052 C35.2504365,9.95718654 34.1084573,9.6146789 33.1542007,9.12538226 L33.1542007,9.12538226 L36.2281584,9.12538226 L36.2281584,7.64525994 L31.6406872,7.64525994 L31.6406872,7.29051988 L35.1722187,7.29051988 L35.1722187,6.00611621 L31.6406872,6.00611621 L31.6406872,5.65137615 L35.7119212,5.65137615 L35.7119212,4.25688073 L33.5531112,4.25688073 C33.6078637,4.15902141 33.6919477,4.00815494 33.8053635,3.80428135 C33.9187792,3.60040775 33.9872198,3.47808359 34.0106851,3.43730887 L34.0106851,3.43730887 L36.1929604,3.43730887 L36.1929604,1.95718654 L34.8085062,1.95718654 C34.9805852,1.70438328 35.2739018,1.22324159 35.6884559,0.513761468 L35.6884559,0.513761468 L33.8464278,0.0856269113 C33.6821705,0.713557594 33.4592499,1.30071356 33.177666,1.8470948 L33.177666,1.8470948 L33.5296459,1.95718654 L32.7435575,1.95718654 L32.7435575,0 L31.1009847,0 L31.1009847,1.95718654 L30.5143515,1.95718654 L30.5143515,0 L28.8952441,0 L28.8952441,1.95718654 L28.0387597,1.95718654 L28.5784622,1.76146789 C28.4220267,1.2803262 28.1365319,0.70540265 27.7219778,0.0366972477 L27.7219778,0.0366972477 L26.2201969,0.562691131 C26.5174244,1.12538226 26.7325232,1.59021407 26.8654934,1.95718654 L26.8654934,1.95718654 L25.4223759,1.95718654 L25.4223759,3.43730887 L27.7337104,3.43730887 C27.8588589,3.75535168 27.9527202,4.0285423 28.0152944,4.25688073 L28.0152944,4.25688073 L25.9151477,4.25688073 L25.9151477,5.65137615 L29.9042531,5.65137615 L29.9042531,6.00611621 L26.5017808,6.00611621 L26.5017808,7.29051988 L29.9042531,7.29051988 L29.9042531,7.64525994 L25.3989105,7.64525994 L25.3989105,9.12538226 L28.4728682,9.12538226 C27.471681,9.66360856 26.3140582,10.0509684 25,10.2874618 C25.4614847,10.7522936 25.83693,11.2579001 26.1263356,11.8042813 C27.5655423,11.412844 28.8248481,10.8093782 29.9042531,9.99388379 L29.9042531,9.99388379 L29.9042531,11.9143731 L31.6406872,11.9143731 Z M31.7814791,4.25688073 L29.7399958,4.25688073 L29.8807878,4.2324159 C29.8182136,4.00407747 29.7165305,3.73904179 29.5757385,3.43730887 L29.5757385,3.43730887 L32.0865284,3.43730887 C32.0161324,3.6656473 31.9144493,3.93883792 31.7814791,4.25688073 L31.7814791,4.25688073 Z M39.6138697,12 C41.4910958,11.3231397 42.4297088,10.0835882 42.4297088,8.28134557 L42.4297088,8.28134557 L42.4297088,7.37614679 L41.4206998,7.37614679 C41.8821845,6.97655454 42.3084713,6.5158002 42.69956,5.99388379 L42.69956,5.99388379 L43.8610937,5.99388379 C44.2208953,6.49949032 44.6471821,6.97247706 45.1399539,7.41284404 L45.1399539,7.41284404 L44.2013409,7.41284404 L44.2013409,11.8654434 L46.0316363,11.8654434 L46.0316363,8.08562691 C46.5713388,8.46075433 47.1697046,8.75840979 47.8267337,8.97859327 C48.1552483,8.37512742 48.546337,7.85728848 49,7.42507645 C47.8110902,7.12334353 46.8020812,6.64627931 45.972973,5.99388379 L45.972973,5.99388379 L47.6859418,5.99388379 L47.6859418,0.452599388 L38.8747119,0.452599388 L38.8747119,5.99388379 L40.4938194,5.99388379 C39.6568895,6.67074414 38.6713458,7.18042813 37.5371884,7.52293578 C37.967386,7.93883792 38.350653,8.4362895 38.6869893,9.01529052 C39.4457015,8.71355759 40.0949089,8.37104995 40.6346114,7.98776758 L40.6346114,7.98776758 L40.6346114,8.20795107 C40.6346114,9.30071356 39.8954536,10.0754332 38.4171381,10.5321101 C38.6205042,10.7115189 38.8434248,10.9480122 39.0858999,11.2415902 C39.3283749,11.5351682 39.5043649,11.7879715 39.6138697,12 Z M42.3475802,2.54434251 L40.6228787,2.54434251 L40.6228787,1.90825688 L42.3475802,1.90825688 L42.3475802,2.54434251 Z M45.8556464,2.54434251 L44.1192122,2.54434251 L44.1192122,1.90825688 L45.8556464,1.90825688 L45.8556464,2.54434251 Z M42.3475802,4.5382263 L40.6228787,4.5382263 L40.6228787,3.88990826 L42.3475802,3.88990826 L42.3475802,4.5382263 Z M45.8556464,4.5382263 L44.1192122,4.5382263 L44.1192122,3.88990826 L45.8556464,3.88990826 L45.8556464,4.5382263 Z" id="業界"></path>
                    <path d="M20.537012,30.8032787 L21.5535056,22.8360656 L5.59589927,22.8360656 L4.5794056,30.8032787 L20.537012,30.8032787 Z M17.6787024,25.7377049 L8.54338161,25.7377049 L8.62181476,25.1229508 L17.7571355,25.1229508 L17.6787024,25.7377049 Z M17.3241845,28.5163934 L8.18886376,28.5163934 L8.27043424,27.8770492 L17.405755,27.8770492 L17.3241845,28.5163934 Z M11.9861347,46 C13.5650922,45.3442623 14.895412,44.6229508 15.9770941,43.8360656 C17.0883793,44.7704918 18.3857519,45.4672131 19.8692119,45.9262295 C20.5565972,44.8114754 21.3544171,43.8688525 22.2626717,43.0983607 C20.8268748,42.7540984 19.5942547,42.2213115 18.5648113,41.5 C20.0200459,39.8606557 21.1900157,37.8934426 22.0747206,35.5983607 L20.0287651,34.7868852 L19.432116,34.8852459 L12.3995545,34.8852459 L12.0513113,37.6147541 L14.2942545,37.6147541 L12.402842,38.1557377 C12.8387986,39.5 13.3440227,40.6065574 13.9185143,41.4754098 C12.9781725,42.1311475 11.9865628,42.6393443 10.943685,43 L12.0542985,34.295082 L22.8951907,34.295082 L23.2622578,31.4180328 L1.69729344,31.4180328 L1.33022628,34.295082 L3.10588965,34.295082 L2.1866531,41.5 C1.74634215,41.5327869 1.08017928,41.5655738 0.188164493,41.5983607 L0,44.7213115 C1.40090437,44.6065574 3.89375233,44.4180328 7.47854388,44.1557377 L7.24951907,45.9508197 L10.5672059,45.9508197 L10.8589772,43.6639344 C11.3546537,44.4180328 11.7303729,45.1967213 11.9861347,46 Z M8.65817851,34.9098361 L6.18159538,34.9098361 L6.26002854,34.295082 L8.73661166,34.295082 L8.65817851,34.9098361 Z M8.25660076,38.057377 L5.78001764,38.057377 L5.86786277,37.3688525 L8.34444589,37.3688525 L8.25660076,38.057377 Z M16.3346742,39.3852459 C15.8794511,38.6803279 15.5653471,38.0901639 15.3923621,37.6147541 L17.6586693,37.6147541 C17.3248562,38.1557377 16.8835245,38.7459016 16.3346742,39.3852459 Z M5.36275326,41.3278689 L5.46628503,40.5163934 L7.94286815,40.5163934 L7.85816034,41.1803279 L5.36275326,41.3278689 Z M30.6362619,30.3114754 L31.003329,27.4344262 L44.4609883,27.4344262 L44.0939211,30.3114754 L47.8087958,30.3114754 L48.608814,24.0409836 L40.010865,24.0409836 L40.2712631,22 L36.5330244,22 L36.2726263,24.0409836 L27.9083173,24.0409836 L27.1082991,30.3114754 L30.6362619,30.3114754 Z M27.168991,45.9508197 C31.502808,45.3114754 34.8552016,44.2459016 37.226172,42.7540984 C39.6414363,43.9672131 41.3865759,45 42.4615909,45.852459 L45.6916143,42.8770492 C44.5615052,42.0901639 42.8193923,41.1557377 40.4652755,40.0737705 C41.768712,38.647541 42.883477,36.8688525 43.8095703,34.7377049 L47.594537,34.7377049 L48.0369,31.2704918 L36.9857319,31.2704918 C37.0668598,31.1229508 37.3055376,30.7172131 37.7017653,30.0532787 C38.097993,29.3893443 38.3881601,28.8852459 38.5722666,28.5409836 L34.9842877,27.7295082 C34.5900409,28.5 33.9254415,29.6803279 32.9904893,31.2704918 L26.5887556,31.2704918 L26.1463926,34.7377049 L30.8659189,34.7377049 C29.7324406,36.5409836 28.5959357,38.2459016 27.456404,39.852459 L31.016147,40.8852459 L31.4481774,40.2459016 C31.5820867,40.295082 32.2417536,40.557377 33.4271782,41.0327869 C31.4888164,41.8196721 28.8985757,42.3442623 25.656456,42.6065574 C25.9447476,43.0327869 26.2474587,43.5901639 26.5645895,44.2786885 C26.8817202,44.9672131 27.0831874,45.5245902 27.168991,45.9508197 Z M37.2095963,38.6721311 C35.9951113,38.1803279 34.707397,37.7131148 33.3464533,37.2704918 C33.4650079,37.0737705 33.7093822,36.6844262 34.0795761,36.102459 C34.4497701,35.5204918 34.7336625,35.0655738 34.9312535,34.7377049 L39.7675998,34.7377049 C39.1836857,36.2622951 38.3310179,37.5737705 37.2095963,38.6721311 Z M71.0645651,40.7868852 L72.6614642,28.2704918 L68.1989417,28.2704918 L68.4677561,27.2622951 L73.6078342,27.2622951 L74,24.1885246 L69.1870177,24.1885246 C69.2902176,23.7459016 69.4273498,23.0983607 69.5984144,22.2459016 L66.1625049,22.0737705 C66.0142261,22.9918033 65.8931374,23.6967213 65.7992389,24.1885246 L59.888149,24.1885246 L59.4959832,27.2622951 L65.1967972,27.2622951 L64.9747109,28.2704918 L62.8719516,28.2704918 L61.2750526,40.7868852 L71.0645651,40.7868852 Z M54.6381696,45.9262295 L56.8907697,28.2704918 C57.9847298,26.5327869 58.9311855,24.852459 59.7301368,23.2295082 L56.5738563,22.147541 C55.7779317,23.8688525 54.8125289,25.545082 53.6776479,27.1762295 C52.542767,28.807377 51.3912517,30.1721311 50.2231022,31.2704918 C50.4469982,31.7131148 50.7008345,32.3483607 50.984611,33.1762295 C51.2683876,34.0040984 51.4578283,34.6557377 51.5529333,35.1311475 C52.1994227,34.4590164 52.6494775,33.9836066 52.9030978,33.704918 L51.3438467,45.9262295 L54.6381696,45.9262295 Z M59.5414705,45.9508197 L59.6826502,44.8442623 L71.481466,44.8442623 L71.8799064,41.7213115 L60.0810906,41.7213115 L61.5932818,29.8688525 L58.3924149,29.8688525 L56.3406036,45.9508197 L59.5414705,45.9508197 Z M68.8811877,31.7131148 L65.6569568,31.7131148 L65.7667632,30.852459 L68.9909941,30.852459 L68.8811877,31.7131148 Z M68.4639233,34.9836066 L65.2396924,34.9836066 L65.3526362,34.0983607 L68.576867,34.0983607 L68.4639233,34.9836066 Z M68.0497962,38.2295082 L64.8255654,38.2295082 L64.9353718,37.3688525 L68.1596027,37.3688525 L68.0497962,38.2295082 Z" id="最安値"></path>
                </g>
                <g id="Group-11-Copy" transform="translate(216.000000, 15.000000)" fill="#F8FF00" fill-rule="nonzero">
                    <path d="M13.6200551,5.7244898 L13.6200551,2.25612245 L11.2788422,2.25612245 L11.3898001,2.02040816 L14.5410062,2.02040816 L14.5410062,0.920408163 L12.9986905,0.920408163 C13.1836205,0.651020408 13.3315644,0.422789116 13.4425224,0.235714286 L13.4425224,0.235714286 L11.8780151,0 C11.7744544,0.306802721 11.6450034,0.613605442 11.4896623,0.920408163 L11.4896623,0.920408163 L10.1359752,0.920408163 C10.0398116,0.665986395 9.88447046,0.36292517 9.66995174,0.0112244898 L9.66995174,0.0112244898 L8.32736043,0.246938776 C8.47530437,0.546258503 8.57886514,0.770748299 8.63804271,0.920408163 L8.63804271,0.920408163 L7.06243969,0.920408163 L7.06243969,2.02040816 L9.90296345,2.02040816 L9.85858027,2.25612245 L7.95010336,2.25612245 L7.95010336,5.7244898 L13.6200551,5.7244898 Z M5.89738111,2.5255102 L7.0180565,1.52653061 C6.69997702,1.10748299 6.16368021,0.636054422 5.40916609,0.112244898 L5.40916609,0.112244898 L4.35506547,1.02142857 C5.07999081,1.58265306 5.59409602,2.08401361 5.89738111,2.5255102 L5.89738111,2.5255102 Z M9.5035148,10.955102 C10.4429589,10.955102 11.086515,10.8840136 11.4341833,10.7418367 C11.685688,10.6370748 11.8558235,10.4855442 11.9445899,10.2872449 C12.0333563,10.0889456 12.0777395,9.80272109 12.0777395,9.42857143 L12.0777395,9.42857143 L12.0777395,8.78877551 L14.5188146,8.78877551 L14.5188146,7.54285714 L12.0777395,7.54285714 L12.0777395,7.18367347 C12.8692396,7.17619048 13.6237537,7.15748299 14.3412818,7.12755102 C14.4152538,6.71598639 14.5447048,6.30068027 14.7296347,5.88163265 C13.9307374,5.9414966 12.8914312,5.98078231 11.611716,5.9994898 C10.3320009,6.01819728 9.35187226,6.01258503 8.6713301,5.98265306 C7.73928324,5.9452381 7.12161727,5.64591837 6.81833218,5.08469388 L6.81833218,5.08469388 L6.81833218,2.80612245 L4.11095796,2.80612245 L4.11095796,4.05204082 L5.33149552,4.05204082 L5.33149552,5.29795918 C4.88026648,5.55986395 4.43643464,5.78061224 4,5.96020408 L4,5.96020408 L4.543694,7.2622449 C5.42396048,6.7085034 6.00464047,6.33435374 6.28573397,6.13979592 C6.54463588,6.49897959 6.86086606,6.75340136 7.23442452,6.90306122 C7.60798299,7.05272109 8.08695151,7.13877551 8.6713301,7.16122449 C9.15954512,7.18367347 9.7661153,7.19489796 10.4910406,7.19489796 L10.4910406,7.19489796 L10.4910406,7.54285714 L4.07767057,7.54285714 L4.07767057,8.78877551 L6.59641626,8.78877551 L5.98614748,9.29387755 C6.65929243,9.82517007 7.13271306,10.2778912 7.40640936,10.6520408 L7.40640936,10.6520408 L8.61585112,9.64183673 C8.46050998,9.44727891 8.14612909,9.16292517 7.67270847,8.78877551 L7.67270847,8.78877551 L10.4910406,8.78877551 L10.4910406,9.38367347 C10.4910406,9.48843537 10.4133701,9.54081633 10.2580289,9.54081633 C10.1988513,9.54829932 10.0268665,9.55017007 9.74207441,9.54642857 C9.45728232,9.54268707 9.21132551,9.53333333 9.00420398,9.51836735 C9.27790028,10.0646259 9.44433722,10.5435374 9.5035148,10.955102 Z M12.0333563,3.19897959 L9.47022741,3.19897959 L9.47022741,2.95204082 L12.0333563,2.95204082 L12.0333563,3.19897959 Z M12.0333563,4.11938776 L9.47022741,4.11938776 L9.47022741,3.85 L12.0333563,3.85 L12.0333563,4.11938776 Z M12.0333563,5.05102041 L9.47022741,5.05102041 L9.47022741,4.77040816 L12.0333563,4.77040816 L12.0333563,5.05102041 Z M17.1437629,10.9438776 C18.9412819,9.82891156 20.2838732,8.04421769 21.1715369,5.58979592 C21.9408454,7.98435374 23.2797381,9.76156463 25.188215,10.9214286 C25.336159,10.7044218 25.5488284,10.442517 25.8262233,10.1357143 C26.1036182,9.82891156 26.3347806,9.60068027 26.5197105,9.45102041 C23.5904204,7.72993197 22.1257753,4.79659864 22.1257753,0.651020408 L22.1257753,0.651020408 L17.9981392,0.651020408 L17.9981392,2.34591837 L20.5057891,2.34591837 C20.5427751,2.76496599 20.5908569,3.14285714 20.6500345,3.47959184 L20.6500345,3.47959184 L19.8289456,3.32244898 C19.2223754,6.39795918 17.8243051,8.48197279 15.6347347,9.5744898 C15.8492534,9.73163265 16.1155525,9.9542517 16.433632,10.2423469 C16.7517115,10.5304422 16.9884218,10.7642857 17.1437629,10.9438776 Z M35.0920055,8.90102041 L35.0920055,7.2622449 C35.7207673,7.90578231 36.3717206,8.41088435 37.0448656,8.77755102 C37.3777395,8.2537415 37.7475993,7.81598639 38.1544452,7.46428571 C37.1558236,7.08265306 36.3162417,6.58877551 35.6356995,5.98265306 L35.6356995,5.98265306 L37.6107512,5.98265306 L37.6107512,2.75 L35.0920055,2.75 L35.0920055,2.30102041 L37.9325293,2.30102041 L37.9325293,0.920408163 L35.0920055,0.920408163 L35.0920055,0.056122449 L33.4831151,0.056122449 L33.4831151,0.920408163 L30.8201241,0.920408163 L30.8201241,2.30102041 L33.4831151,2.30102041 L33.4831151,2.75 L31.1086148,2.75 L31.1086148,5.98265306 L32.7618884,5.98265306 C32.1775098,6.64863946 31.4045027,7.16496599 30.442867,7.53163265 C30.8571101,7.89829932 31.2047783,8.32108844 31.4858718,8.8 C32.2107972,8.42585034 32.8765449,7.87959184 33.4831151,7.16122449 L33.4831151,7.16122449 L33.4831151,8.90102041 L35.0920055,8.90102041 Z M29.3443832,3.12040816 L30.6536871,2.02040816 C30.2764301,1.51156463 29.6550655,0.939115646 28.7895934,0.303061224 L28.7895934,0.303061224 L27.5690558,1.30204082 C27.9167241,1.57891156 28.2606938,1.88945578 28.6009649,2.23367347 C28.9412359,2.57789116 29.1890421,2.87346939 29.3443832,3.12040816 L29.3443832,3.12040816 Z M36.0129566,4.73673469 L35.0920055,4.73673469 L35.0920055,4.00714286 L36.0129566,4.00714286 L36.0129566,4.73673469 Z M33.4831151,4.73673469 L32.6287388,4.73673469 L32.6287388,4.00714286 L33.4831151,4.00714286 L33.4831151,4.73673469 Z M28.1127498,10.8428571 C28.6009649,10.4462585 29.1187687,10.0047619 29.6661613,9.51836735 C30.028624,9.94489796 30.4447163,10.2498299 30.9144383,10.4331633 C31.3841604,10.6164966 31.9703882,10.7231293 32.673122,10.7530612 C34.2783138,10.8278912 35.9833678,10.8166667 37.7882839,10.7193878 C37.8696531,10.2030612 38.0471858,9.63435374 38.3208821,9.01326531 C37.5441764,9.08061224 36.5788422,9.1255102 35.4248794,9.14795918 C34.2709166,9.17040816 33.3647599,9.16666667 32.7064094,9.13673469 C31.5524466,9.09183673 30.7831381,8.74387755 30.3984838,8.09285714 L30.3984838,8.09285714 L30.3984838,4.48979592 L27.613439,4.48979592 L27.613439,6.02755102 L28.7784976,6.02755102 L28.7784976,8.16020408 C28.4012405,8.43707483 27.9130255,8.74761905 27.3138525,9.09183673 L27.3138525,9.09183673 L28.1127498,10.8428571 Z M40.4354239,10.8989796 C41.2713072,9.46972789 41.6892488,7.23979592 41.6892488,4.20918367 L41.6892488,4.20918367 L41.6892488,2.50306122 L49.7669883,2.50306122 L49.7669883,1.02142857 L45.8390765,1.02142857 L45.8390765,0.0336734694 L44.1081323,0.0336734694 L44.1081323,1.02142857 L40.1136458,1.02142857 L40.1136458,4.20918367 C40.1136458,6.88061224 39.7696761,8.8037415 39.0817368,9.97857143 C39.2666667,10.0608844 39.5015277,10.1993197 39.7863198,10.3938776 C40.0711119,10.5884354 40.2874799,10.7568027 40.4354239,10.8989796 Z M48.1802895,6.33061224 L48.1802895,4.57959184 L49.7115093,4.57959184 L49.7115093,3.27755102 L48.1802895,3.27755102 L48.1802895,2.66020408 L46.5492075,2.66020408 L46.5492075,3.27755102 L44.8626465,3.27755102 L44.8626465,2.66020408 L43.2981392,2.66020408 L43.2981392,3.27755102 L41.9222605,3.27755102 L41.9222605,4.57959184 L43.2981392,4.57959184 L43.2981392,6.33061224 L48.1802895,6.33061224 Z M46.5492075,5.08469388 L44.8626465,5.08469388 L44.8626465,4.57959184 L46.5492075,4.57959184 L46.5492075,5.08469388 Z M49.0346658,11 C49.3083621,10.4163265 49.6301401,9.93741497 50,9.56326531 C49.1271307,9.49591837 48.2986446,9.37619048 47.5145417,9.20408163 C48.2838502,8.65034014 48.8719274,7.94319728 49.2787733,7.08265306 L49.2787733,7.08265306 L48.2468642,6.56632653 L47.9583735,6.62244898 L41.9666437,6.62244898 L41.9666437,7.91326531 L43.6421089,7.91326531 L43.0651275,8.11530612 C43.383207,8.52687075 43.7308753,8.88605442 44.1081323,9.19285714 C43.3684126,9.37993197 42.4807489,9.51462585 41.4451413,9.59693878 C41.7558236,10.0234694 41.9851367,10.487415 42.1330807,10.9887755 C43.5755341,10.8017007 44.7738801,10.5285714 45.7281186,10.1693878 C46.6527682,10.5734694 47.7549506,10.8503401 49.0346658,11 Z M45.7725017,8.5755102 C45.3656559,8.37346939 45.032782,8.15272109 44.7738801,7.91326531 L44.7738801,7.91326531 L46.793315,7.91326531 C46.4900299,8.17517007 46.1497588,8.39591837 45.7725017,8.5755102 Z" id="導入速度"></path>
                    <path d="M20.5501448,29.3915725 L21.5672885,21.7327852 L5.5994777,21.7327852 L4.58233401,29.3915725 L20.5501448,29.3915725 Z M17.6900074,24.5220966 L8.54884487,24.5220966 L8.62732818,23.9311408 L17.7684907,23.9311408 L17.6900074,24.5220966 Z M17.3352629,27.1932169 L8.19410032,27.1932169 L8.27572296,26.5786228 L17.4168855,26.5786228 L17.3352629,27.1932169 Z M11.9937996,44 C13.5737668,43.3696471 14.9049373,42.676259 15.9873111,41.9198356 C17.0993069,42.8180884 18.3975091,43.4878383 19.8819178,43.9290853 C20.5697426,42.8574854 21.3680727,41.9513532 22.2769081,41.2106886 C20.840193,40.8797533 19.6067847,40.3675916 18.576683,39.6742035 C20.0328482,38.0983213 21.2035662,36.2072628 22.0888368,34.0010277 L20.041573,33.2209661 L19.4445423,33.315519 L12.4074837,33.315519 L12.0590178,35.9393628 L14.3033953,35.9393628 L12.4107733,36.4594039 C12.8470087,37.7516273 13.3525559,38.8153477 13.9274148,39.6505653 C12.9864717,40.2809181 11.9942279,40.7694416 10.9506832,41.1161357 L12.0620069,32.7482014 L22.9098315,32.7482014 L23.2771334,29.9825283 L1.69837881,29.9825283 L1.33107692,32.7482014 L3.10787579,32.7482014 L2.1880514,39.6742035 C1.74745889,39.7057211 1.08087003,39.7372388 0.188284819,39.7687564 L0,42.7708119 C1.40180021,42.6605002 3.89624228,42.4792737 7.48332621,42.2271326 L7.25415495,43.9527235 L10.5739633,43.9527235 L10.8659213,41.7543679 C11.3619147,42.4792737 11.7378741,43.2278177 11.9937996,44 Z M8.66371518,33.3391572 L6.18554835,33.3391572 L6.26403166,32.7482014 L8.74219849,32.7482014 L8.66371518,33.3391572 Z M8.26188064,36.364851 L5.78371381,36.364851 L5.87161511,35.7029805 L8.34978194,35.7029805 L8.26188064,36.364851 Z M16.3451198,37.6413155 C15.8896056,36.9636862 15.5753007,36.3963686 15.4022051,35.9393628 L17.6699616,35.9393628 C17.335935,36.4594039 16.8943211,37.0267215 16.3451198,37.6413155 Z M5.3661826,39.5087359 L5.46978057,38.7286742 L7.9479474,38.7286742 L7.86318543,39.3669065 L5.3661826,39.5087359 Z M40.782928,39.626927 L41.2412705,36.1757451 C42.3860883,37.5310038 43.6163824,38.5947242 44.9321528,39.3669065 C45.7800229,38.263789 46.6817546,37.3418979 47.6373479,36.6012333 C45.6399813,35.7975334 44.009106,34.7574512 42.7447221,33.4809866 L46.9061721,33.4809866 L47.8102998,26.6731757 L42.5032821,26.6731757 L42.6288554,25.7276465 L48.6138621,25.7276465 L49,22.8201439 L43.0149933,22.8201439 L43.2567219,21 L39.8667767,21 L39.6250481,22.8201439 L34.0141043,22.8201439 L33.6279665,25.7276465 L39.2389102,25.7276465 L39.1133369,26.6731757 L34.1102454,26.6731757 L33.2061177,33.4809866 L36.6895786,33.4809866 C35.2720211,34.8835218 33.4988795,35.9708804 31.3701539,36.7430627 C32.1404158,37.5152449 32.7547075,38.4056184 33.213029,39.4141829 C34.845097,38.6262419 36.4006137,37.4758479 37.8795793,35.963001 L37.3929828,39.626927 L40.782928,39.626927 Z M33.3557658,25.1366906 C32.7031985,24.0650908 31.5540842,22.8595409 29.908423,21.5200411 L27.0573399,23.6238438 C27.7124429,24.2069202 28.3503349,24.8609113 28.971016,25.5858171 C29.591697,26.3107229 30.0311574,26.9331963 30.2893972,27.4532374 L33.3557658,25.1366906 Z M43.8880717,30.8571429 L41.9476203,30.8571429 L42.1516769,29.3206578 L44.0921283,29.3206578 L43.8880717,30.8571429 Z M38.5576751,30.8571429 L36.7574973,30.8571429 L36.9615539,29.3206578 L38.7617317,29.3206578 L38.5576751,30.8571429 Z M25.534475,43.7163412 C26.6740711,42.8811237 27.8885684,41.9513532 29.1779668,40.9270298 C29.8223839,41.8252826 30.6138087,42.4674546 31.5522411,42.8535457 C32.4906735,43.2396369 33.6960367,43.4642001 35.1683309,43.5272354 C38.5295542,43.6848236 42.1252562,43.6611853 45.9554367,43.4563207 C46.2712915,42.368962 46.8044139,41.1712915 47.554804,39.8633094 C45.8994427,40.0051387 43.8529183,40.0996917 41.4152307,40.1469681 C38.977543,40.1942446 37.06931,40.1863652 35.6905316,40.1233299 C33.2716799,40.028777 31.7480599,39.2959918 31.1196715,37.9249743 L32.1273972,30.3371017 L26.2592852,30.3371017 L25.8291967,33.5755396 L28.2839846,33.5755396 L27.6875114,38.0668037 C26.8151908,38.6498801 25.699663,39.3038712 24.3409277,40.028777 L25.534475,43.7163412 Z" id="最速"></path>
                </g>
                <path d="M366.031,29.372 C368.621,27.958 369.391,25.48 369.391,23.996 L369.390286,23.909914 C369.38386,23.54968 369.3196,22.3174 368.677,21.448 C368.635,20.79 368.663,19.866 368.663,19.628 C369.293,19.6 370.721,19.572 373.381,19.684 C373.325,19.32 373.325,18.802 373.325,18.452 C373.325,18.046 373.339,18.004 373.367,17.766 C373.199,17.78 372.737,17.808 368.635,17.976 C368.649,17.346 368.663,17.108 368.705,16.856 C368.845,16.786 368.929,16.744 368.929,16.618 C368.929,16.52 368.831,16.492 368.607,16.464 L366.577,16.212 C366.633,16.562 366.703,16.94 366.773,18.06 C361.943,18.34 361.411,18.368 360.949,18.368 L361.089,20.37 C362.055,20.188 363.679,19.894 366.829,19.698 L366.828481,19.9873333 C366.827444,20.1802222 366.824333,20.398 366.815,20.79 C366.675,20.748 366.521,20.706 366.227,20.706 C364.743,20.706 363.777,21.84 363.777,23.562 C363.777,24.5 364.085,26.222 365.793,26.222 C366.297,26.222 366.759,26.068 367.137,25.732 C366.969,26.166 366.535,27.244 364.337,28.126 C365.233,28.658 365.611,28.966 366.031,29.372 Z M366.213,24.794 C365.975,24.794 365.345,24.654 365.345,23.492 C365.345,22.638 365.793,22.218 366.269,22.218 C367.053,22.218 367.137,23.016 367.137,23.31 C367.137,24.122 366.773,24.794 366.213,24.794 Z M387.682,19.152 C387.948,18.858 388.242,18.592 388.592,18.354 C388.018,17.668 387.248,17.038 387.108,16.926 L386.212,17.682 C386.758,18.144 387.234,18.606 387.682,19.152 Z M386.324,20.244 C386.562,20.02 387.038,19.628 387.262,19.46 C386.87,19.026 386.184,18.368 385.792,18.032 L384.896,18.802 C385.344,19.194 386.016,19.894 386.324,20.244 Z M387.444,27.566 C387.584,27.356 388.186,26.404 388.788,25.774 C386.688,24.332 384.686,22.12 383.734,20.958 C381.914,18.732 381.606,18.354 380.696,18.354 C379.87,18.354 379.534,18.802 378.358,20.412 C376.79,22.526 375.614,23.38 375.25,23.646 L376.832,25.186 C377.924,24.024 378.176,23.674 379.926,21.21 C380.346,20.622 380.472,20.566 380.654,20.566 C380.78,20.566 380.864,20.608 380.962,20.692 C381.2,20.86 382.068,21.924 382.6,22.568 C384.07,24.374 385.666,26.068 387.444,27.566 Z M399.813,29.022 C399.939,28.588 400.149,27.93 400.695,26.908 C397.727,26.684 396.579,25.62 396.579,23.982 C396.579,21.42 399.687,18.55 403.187,18.564 L402.823,16.562 C398.693,17.654 392.855,17.892 391.903,17.892 C391.525,17.892 391.259,17.878 390.993,17.85 L391.259,20.104 C392.617,19.754 396.747,19.278 397.643,19.222 C395.767,20.664 394.703,22.274 394.703,24.15 C394.703,27.328 397.685,28.546 399.813,29.022 Z M413.246,28.56 C414.282,28.154 415.444,27.65 416.396,26.572 C417.11,25.774 418.048,24.416 418.048,22.33 C418.048,18.984 415.374,16.968 412.392,16.968 C408.402,16.968 405.7,20.398 405.7,23.38 C405.7,25.886 407.59,27.65 408.668,27.65 C410.11,27.65 412.126,23.898 412.602,18.676 C415.122,18.802 416.172,20.706 416.172,22.33 C416.172,23.8 415.318,26.264 412.014,26.894 C412.56,27.496 412.826,27.86 413.246,28.56 Z M408.542,25.382 C408.108,25.382 407.478,24.444 407.478,23.254 C407.478,21.77 408.71,19.6 410.614,19.012 C410.586,19.656 410.558,21.476 409.564,23.87 C409.34,24.43 408.948,25.382 408.542,25.382 Z M431.971,29.092 C432.671,29.092 433.105,28.476 433.399,26.908 C433.035,26.852 432.559,26.6 432.251,26.25 C432.209,26.46 432.069,27.286 431.733,27.286 C431.551,27.286 431.229,27.034 430.963,26.628 C431.201,26.362 431.565,25.9 432.097,25.074 C432.265,25.088 432.419,25.06 432.419,24.892 C432.419,24.78 432.307,24.696 432.265,24.668 L431.439,24.066 L433.147,24.066 L433.147,22.778 L432.237,22.778 C431.929,22.19 431.649,21.826 431.481,21.616 L430.347,22.148 C430.487,22.344 430.585,22.484 430.767,22.778 L429.577,22.778 C429.451,21.938 429.255,20.762 429.297,18.396 C429.885,18.886 430.585,19.67 430.697,19.81 C430.473,20.09 430.207,20.398 429.955,20.664 C429.899,20.664 429.717,20.664 429.675,20.65 L429.815,21.77 C429.829,21.868 429.857,21.98 429.983,21.98 C430.081,21.98 430.179,21.896 430.235,21.77 C430.543,21.728 431.929,21.49 432.237,21.42 C432.321,21.854 432.335,21.994 432.363,22.19 C432.559,22.106 432.951,21.924 433.385,21.84 C433.315,21.448 433.161,20.496 432.839,19.74 L431.929,19.992 C432.041,20.314 432.083,20.482 432.125,20.636 C431.705,20.664 431.313,20.692 431.201,20.692 C431.817,20.076 432.279,19.544 432.811,18.718 C432.923,18.732 433.077,18.732 433.077,18.606 C433.077,18.536 433.035,18.494 432.951,18.438 L432.083,17.878 C431.957,18.116 431.789,18.382 431.467,18.83 C431.397,18.746 431.327,18.662 431.201,18.536 C431.537,18.102 431.803,17.724 432.279,16.996 C432.433,16.996 432.545,16.996 432.545,16.87 C432.545,16.772 432.461,16.716 432.391,16.674 L431.453,16.128 C431.103,16.758 430.879,17.122 430.431,17.752 C430.291,17.612 430.221,17.528 430.011,17.36 L429.311,18.158 C429.339,17.556 429.367,17.206 429.409,16.814 C429.577,16.758 429.745,16.66 429.745,16.534 C429.745,16.408 429.563,16.38 429.409,16.366 L427.897,16.212 C427.897,16.534 427.869,17.374 427.869,18.186 C427.869,20.426 428.037,21.77 428.191,22.778 L424.677,22.778 C424.089,22.106 423.697,21.378 423.347,20.538 L423.347,20.132 L424.621,20.132 L424.621,19.18 C424.929,19.46 425.237,19.74 425.531,20.034 C425.153,20.594 424.971,20.832 424.817,21.056 C424.649,21.07 424.383,21.056 424.271,21.056 L424.579,22.134 C424.607,22.232 424.649,22.344 424.761,22.344 C424.845,22.344 424.901,22.26 424.943,22.134 C425.223,22.092 426.315,21.952 426.875,21.84 C426.889,21.91 426.917,22.302 426.917,22.386 C427.309,22.288 427.519,22.246 427.883,22.204 C427.813,21.364 427.617,20.566 427.477,20.09 L426.539,20.314 C426.693,20.762 426.707,20.818 426.763,21.042 C426.567,21.056 426.049,21.07 425.895,21.07 C426.483,20.398 427.407,18.942 427.519,18.76 C427.715,18.774 427.827,18.746 427.827,18.62 C427.827,18.522 427.743,18.48 427.645,18.424 L426.721,17.92 C426.609,18.2 426.539,18.34 426.147,19.04 C425.923,18.802 425.881,18.76 425.811,18.704 C425.937,18.508 426.357,17.85 426.763,17.066 C426.959,17.052 427.099,16.996 427.099,16.898 C427.099,16.814 427.029,16.772 426.931,16.716 L425.923,16.156 C425.601,16.856 425.237,17.444 424.957,17.892 C424.817,17.766 424.761,17.724 424.607,17.612 L423.865,18.564 L424.061,18.704 L423.347,18.704 L423.347,16.842 C423.459,16.8 423.641,16.688 423.641,16.548 C423.641,16.408 423.445,16.394 423.375,16.394 L421.863,16.296 L421.863,18.704 L420.379,18.704 L420.379,20.132 L421.849,20.132 C421.569,21.518 420.939,23.254 419.875,24.402 C420.169,24.57 420.519,24.822 421.009,25.648 C421.233,25.256 421.485,24.794 421.863,23.8 L421.863,29.05 L423.347,29.05 L423.347,28.126 C423.907,28.448 424.215,28.658 424.621,29.05 C425.503,28.224 426.063,27.37 426.385,25.942 C426.525,26.096 427.001,26.586 427.379,27.104 C427.813,26.712 427.995,26.558 428.415,26.32 C427.995,25.802 427.421,25.2 426.973,24.78 L426.497,25.144 C426.511,24.962 426.539,24.696 426.553,24.066 L428.443,24.066 C428.737,25.34 429.101,26.152 429.227,26.404 C427.757,27.72 427.057,27.916 426.651,28.042 C427.239,28.364 427.309,28.462 427.799,29.078 C428.877,28.616 429.815,27.776 429.955,27.65 C430.725,28.7 431.495,29.092 431.971,29.092 Z M423.347,28.014 L423.347,22.89 C423.655,23.478 423.809,23.772 424.117,24.164 C424.229,23.884 424.285,23.73 424.663,23.184 L424.663,24.066 L425.111,24.066 C425.083,25.578 424.915,26.978 423.347,28.014 Z M430.277,25.284 C430.081,24.794 429.941,24.332 429.871,24.066 L431.061,24.066 C430.893,24.43 430.613,24.85 430.277,25.284 Z M440.182,20.86 C440.714,20.51 441.232,20.23 441.638,20.048 C441.54,19.81 440.7,17.99 440.112,17.346 L438.782,17.976 C438.978,18.27 439.062,18.396 439.16,18.578 C438.838,18.634 438.432,18.69 437.732,18.788 C438.138,17.99 438.18,17.906 438.572,17.024 C438.684,17.01 438.768,16.968 438.824,16.94 C438.894,16.912 438.936,16.856 438.936,16.772 C438.936,16.688 438.852,16.618 438.74,16.59 L437.13,16.212 C436.864,17.234 436.584,17.948 436.136,18.97 C435.898,18.998 435.66,19.012 434.988,19.04 L435.352,20.496 C435.38,20.608 435.408,20.72 435.548,20.72 C435.716,20.72 435.758,20.594 435.814,20.412 C435.968,20.384 436.164,20.356 438.012,20.09 C438.656,19.992 439.384,19.852 439.762,19.768 C440.056,20.44 440.112,20.608 440.182,20.86 Z M446.202,22.106 C447.518,22.106 447.882,21.56 448.218,19.936 C447.784,19.824 447.196,19.544 446.79,19.194 C446.522174,20.6134783 446.331202,20.7648582 445.825016,20.7753384 L444.074,20.776 C443.584,20.776 443.458,20.678 443.458,20.272 L443.458,19.53 C443.808,19.418 445.362,18.928 446.762,18.074 C446.804,18.088 447.028,18.186 447.07,18.186 C447.154,18.186 447.224,18.144 447.224,18.032 C447.224,17.976 447.196,17.92 447.154,17.864 L446.118,16.618 C445.474,17.094 444.76,17.556 443.458,18.032 L443.458,16.87 C443.696,16.786 443.808,16.744 443.808,16.632 C443.808,16.52 443.64,16.45 443.584,16.45 L441.904,16.31 L441.904,20.706 C441.904,22.0208333 442.739747,22.1013333 443.548706,22.105759 L446.202,22.106 Z M440.923383,27.389237 L440.924,20.888 L435.814,20.888 L435.814,29.022 L437.41,29.022 L437.41,26.222 L439.356,26.222 L439.356,27.076 C439.356,27.454 439.23,27.51 438.824,27.51 C438.754,27.51 438.446,27.496 438.012,27.44 C438.32,27.958 438.558,28.588 438.628,29.022 C440.775871,29.139871 440.914443,28.3511072 440.923383,27.389237 Z M439.356,22.974 L437.41,22.974 L437.41,22.19 L439.356,22.19 L439.356,22.974 Z M446.062,28.784 C447.644,28.784 447.896,28.126 448.19,26.39 C447.868,26.348 447.168,26.11 446.734,25.718 C446.515833,27.2323333 446.191792,27.3585278 445.761875,27.369044 L444.074,27.37 C443.64,27.37 443.458,27.356 443.458,26.866 L443.458,26.194 C445.558,25.326 446.944,24.332 447.196,24.108 C447.364,24.164 447.42,24.192 447.49,24.192 C447.588,24.192 447.686,24.15 447.686,24.01 C447.686,23.954 447.672,23.898 447.574,23.814 L446.398,22.722 C445.152,23.814 443.724,24.472 443.458,24.584 L443.458,23.016 C443.724,22.918 443.794,22.89 443.794,22.764 C443.794,22.61 443.654,22.582 443.584,22.582 L441.89,22.456 L441.89,27.188 C441.89,28.49 442.814,28.784 443.682,28.784 L446.062,28.784 Z M439.356,24.99 L437.41,24.99 L437.41,24.178 L439.356,24.178 L439.356,24.99 Z M462.365,18.13 C462.911,17.738 462.981,17.682 463.373,17.416 C462.911,16.716 462.323,16.156 462.141,15.974 L461.203,16.59 C461.637,17.024 461.959,17.416 462.365,18.13 Z M455.799,28.616 C456.919,28.616 457.773,28.252 458.487,26.88 C458.963,25.942 459.355,24.542 459.355,23.016 C459.355,19.474 457.605,19.068 455.995,19.166 C456.135,18.606 456.275,17.906 456.401,17.304 C456.695,17.276 456.765,17.164 456.765,17.066 C456.765,16.954 456.653,16.912 456.499,16.87 L454.497,16.254 C454.455,16.8 454.371,17.906 454.063,19.432 C453.559,19.502 451.137,20.02 450.577,20.104 L451.179,22.05 C452.523,21.546 452.929,21.448 453.601,21.294 C452.887,23.73 451.865,25.648 450.227,27.58 C450.759,27.762 451.473,28.14 451.991,28.49 C454.189,25.578 454.987,22.834 455.533,20.93 C456.009,20.874 456.051,20.86 456.219,20.86 C457.451,20.86 457.553667,22.0599167 457.562222,22.7128125 L457.563,22.876 C457.563,23.17 457.549,24.542 457.101,25.606 C456.653,26.67 456.233,26.712 455.631,26.712 C455.071,26.712 454.721,26.572 454.357,26.418 C454.511,27.034 454.553,27.51 454.525,28.462 C454.805,28.518 455.197,28.616 455.799,28.616 Z M461.105,18.914 C461.385,18.676 461.595,18.508 462.001,18.242 C461.847,18.018 461.525,17.57 460.797,16.828 L459.887,17.458 C460.265,17.836 460.601,18.228 461.105,18.914 Z M460.741,24.794 C461.679,24.486 462.883,24.08 462.883,22.974 C462.883,21.49 460.951,19.39 459.971,18.466 L458.655,19.222 C459.691,20.244 460.853,21.77 460.853,22.498 C460.853,22.932 460.601,23.002 459.831,23.212 C460.069,23.562 460.503,24.262 460.741,24.794 Z M468.042,29.078 L468.042,20.37 C468.168,20.314 468.266,20.258 468.266,20.16 C468.266,20.006 468.028,19.922 467.86,19.866 C468.364,18.718 468.63,17.906 468.854,17.192 C468.952,17.178 469.302,17.136 469.302,16.898 C469.302,16.786 469.19,16.716 469.092,16.688 L467.482,16.198 C467.188,17.486 465.998,20.79 464.472,22.554 C464.92,22.946 465.326,23.52 465.508,23.828 C465.718,23.576 465.942,23.324 466.306,22.778 L466.306,29.078 L468.042,29.078 Z M477.268,29.134 C477.352,28.868 477.758,27.944 478.164,27.524 C475.392,27.104 474.118,26.292 473.488,25.886 C473.796,25.256 473.95,24.626 474.062,23.926 L477.352,23.926 L477.352,19.516 L474.146,19.516 L474.146,18.718 L477.8,18.718 L477.8,17.318 L474.146,17.318 L474.146,16.8 C474.272,16.758 474.468,16.674 474.468,16.534 C474.468,16.394 474.272,16.324 474.146,16.324 L472.452,16.254 L472.452,17.318 L468.952,17.318 L468.952,18.718 L472.452,18.718 L472.452,19.516 L469.274,19.516 L469.274,23.926 L470.884,23.926 L469.988,24.64 C470.24,25.018 470.506,25.41 471.304,26.152 C470.758,26.698 469.722,27.3 468.21,27.706 C468.854,28.238 469.12,28.714 469.302,29.134 C470.632,28.672 471.892,27.888 472.592,27.188 C474.076,28.196 476.204,28.882 477.268,29.134 Z M472.452,22.456 L470.898,22.456 L470.898,20.972 L472.452,20.972 L472.452,22.456 Z M475.728,22.456 L474.146,22.456 L474.146,20.972 L475.728,20.972 L475.728,22.456 Z M472.116,24.976 C472.046,24.892 471.584,24.444 471.164,23.926 L472.396,23.926 C472.34,24.36 472.27,24.64 472.116,24.976 Z M487.509,18.564 C487.761,18.564 487.929,18.55 488.083,18.536 C488.097,17.962 488.167,17.388 488.307,16.8 C488.027,16.814 487.831,16.828 487.425,16.828 C486.109,16.828 484.821,16.716 483.561,16.352 L483.393,18.172 C485.381,18.55 487.131,18.564 487.509,18.564 Z M492.171,28.462 C492.115,27.944 492.087,26.978 492.101,26.53 C490.729,27.048 489.245,27.048 488.979,27.048 C488.195,27.048 487.859,26.95 487.859,26.18 C487.859,25.9 488.069,24.57 488.069,24.262 C488.069,23.772 487.621,23.268 486.949,23.268 C486.781,23.268 486.739,23.282 486.613,23.324 C487.803,21.882 489.567,20.37 489.917,20.076 L488.783,18.76 C487.523,19.39 484.555,20.118 481.293,20.02 L481.629,21.91 C482.917,21.812 484.835,21.504 486.277,21.112 C485.325,22.246 483.029,24.99 480.313,27.44 L481.811,28.798 C483.155,27.258 483.953,26.348 484.555,25.732 C485.157,25.116 485.423,24.85 485.731,24.85 C486.151,24.85 486.151,25.312 486.151,25.536 C486.151,25.746 486.053,26.754 486.053,26.992 C486.053,27.622 486.109,28.798 488.811,28.798 C489.469,28.798 490.771,28.728 492.171,28.462 Z M503.938,29.022 C504.064,28.588 504.274,27.93 504.82,26.908 C501.852,26.684 500.704,25.62 500.704,23.982 C500.704,21.42 503.812,18.55 507.312,18.564 L506.948,16.562 C502.818,17.654 496.98,17.892 496.028,17.892 C495.65,17.892 495.384,17.878 495.118,17.85 L495.384,20.104 C496.742,19.754 500.872,19.278 501.768,19.222 C499.892,20.664 498.828,22.274 498.828,24.15 C498.828,27.328 501.81,28.546 503.938,29.022 Z M514.235,28.308 C517.133,28.308 518.869,26.894 518.869,24.71 C518.869,22.722 517.273,22.218 516.727,22.036 C517.315,21.826 518.617,21.364 518.617,19.642 C518.617,17.668 516.769,16.66 514.445,16.66 C513.437,16.66 511.687,16.87 510.693,18.2 C510.105,18.998 510.021,19.754 509.965,20.23 L512.149,20.23 C512.233,18.872 512.947,18.438 514.389,18.438 C514.809,18.438 516.475,18.438 516.475,19.88 C516.475,20.944 515.355,21.448 514.319,21.448 L513.493,21.448 L513.493,22.904 L514.459,22.904 C515.369,22.904 516.727,23.254 516.727,24.71 C516.727,26.53 514.529,26.53 514.193,26.53 C512.009,26.53 511.855,25.018 511.799,24.332 L509.629,24.332 C509.839,27.272 511.813,28.308 514.235,28.308 Z M525.82,28.308 C529.95,28.308 530.468,24.458 530.468,22.484 C530.468,20.51 529.95,16.66 525.82,16.66 C521.734917,16.66 521.193437,20.4183681 521.172649,22.3624287 L521.172,22.484 C521.172,24.472 521.69,28.308 525.82,28.308 Z M525.82,26.544 C523.4704,26.544 523.336137,23.4699086 523.328465,22.613999 L523.328594,22.3454668 C523.337646,21.4483086 523.4836,18.424 525.82,18.424 C528.298,18.424 528.298,21.882 528.298,22.484 C528.298,23.086 528.298,26.544 525.82,26.544 Z M535.921,28.518 L535.921,27.692 L542.067,27.692 L542.067,28.504 L543.901,28.504 L543.901,17.108 L534.087,17.108 L534.087,28.518 L535.921,28.518 Z M542.067,21.49 L535.921,21.49 L535.921,18.732 L542.067,18.732 L542.067,21.49 Z M542.067,26.012 L535.921,26.012 L535.921,23.086 L542.067,23.086 L542.067,26.012 Z M549.536,29.022 L549.536,21.182 L553.372,21.182 L553.372,16.52 L547.884,16.52 L547.884,29.022 L549.536,29.022 Z M557.67,29.148 C559.378,29.148 559.854,28.518 559.854,27.454 L559.854,16.52 L554.366,16.52 L554.366,21.182 L558.23,21.182 L558.23,26.726 C558.23,27.356 558.062,27.454 557.628,27.454 C557.516,27.454 557.082,27.454 556.55,27.286 C557.026,27.986 557.194,28.322 557.348,29.134 C557.446,29.148 557.544,29.148 557.67,29.148 Z M558.188,18.298 L555.99,18.298 L555.99,17.612 L558.188,17.612 L558.188,18.298 Z M551.748,18.326 L549.536,18.326 L549.536,17.64 L551.748,17.64 L551.748,18.326 Z M551.748,20.034 L549.536,20.034 L549.536,19.278 L551.748,19.278 L551.748,20.034 Z M558.188,19.978 L555.99,19.978 L555.99,19.278 L558.188,19.278 L558.188,19.978 Z M552.518,27.734 L552.518,27.202 L556.774,27.202 L556.774,22.036 L550.978,22.036 L550.978,27.734 L552.518,27.734 Z M555.248,24.038 L552.518,24.038 L552.518,23.296 L555.248,23.296 L555.248,24.038 Z M555.248,25.942 L552.518,25.942 L552.518,25.172 L555.248,25.172 L555.248,25.942 Z" id="すべての機能が使えて30日間" fill="#2D2779" fill-rule="nonzero"></path>
            </g>
        </g>
    </g>
</svg>