<?xml version="1.0" encoding="utf-8"?>
<!-- Generator: Adobe Illustrator 24.0.3, SVG Export Plug-In . SVG Version: 6.00 Build 0)  -->
<svg version="1.1" id="レイヤー_1" xmlns="http://www.w3.org/2000/svg" xmlns:xlink="http://www.w3.org/1999/xlink" x="0px"
	 y="0px" viewBox="0 0 180.1 43.8" style="enable-background:new 0 0 180.1 43.8;" xml:space="preserve">
<style type="text/css">
	.st0{fill-rule:evenodd;clip-rule:evenodd;fill:#8B989E;}
	.st1{fill-rule:evenodd;clip-rule:evenodd;fill:#7BC9EE;}
	.st2{fill:#868686;}
	.st3{fill:#FFFFFF;stroke:#8B989E;stroke-width:0.3;stroke-miterlimit:10;}
	.st4{fill:#8B989E;}
	.st5{font-family:'HelveticaNeueLTPro-Lt';}
	.st6{font-size:4.7067px;}
</style>
<title>Group-3</title>
<g id="レイヤー_2_1_">
	<g id="レイヤー_1-2">
		<g id="index">
			<g id="Group-3">
				<g>
					<path id="Fill-1" class="st0" d="M169.5,4.1c-0.9,0-1.6,0.7-1.6,1.6v14.7c0.1,1.8-1.3,3.4-3.2,3.5c-1.8,0.1-3.4-1.3-3.5-3.2
						c0-0.1,0-0.2,0-0.4V5.7c0-0.9-0.7-1.6-1.6-1.6c-0.9,0-1.6,0.7-1.5,1.6c0,0,0,0,0,0v14.7c0,3.6,2.9,6.5,6.5,6.5s6.5-2.9,6.5-6.5
						V5.7C171,4.8,170.3,4.1,169.5,4.1C169.5,4.1,169.5,4.1,169.5,4.1L169.5,4.1z M146.3,10.7c0-1.9-1.5-3.4-3.3-3.4c0,0,0,0,0,0
						h-1.7V14h1.7c1.8,0,3.3-1.4,3.3-3.2C146.3,10.8,146.3,10.8,146.3,10.7L146.3,10.7z M150.9,24.6c0.1,0.3,0.2,0.5,0.2,0.8
						c0,0.8-0.7,1.5-1.5,1.6c0,0,0,0,0,0c-0.6,0-1.1-0.3-1.4-0.8l-5.1-9.1h-1.8v8.3c0,0.9-0.7,1.5-1.5,1.6c-0.9,0-1.6-0.7-1.6-1.6
						v-8.3h-1.7c-0.8,0-1.5-0.7-1.5-1.5c0,0,0,0,0,0c0-0.9,0.7-1.6,1.5-1.6h1.7V5.7c0-0.9,0.7-1.6,1.6-1.6h3.3c3.6,0,6.5,3,6.4,6.6
						c0,0,0,0,0,0c0,2.3-1.2,4.4-3.2,5.6L150.9,24.6z M125.7,10.7c0.1-1.8-1.3-3.4-3.2-3.5c-1.8-0.1-3.4,1.3-3.5,3.2
						c0,0.1,0,0.2,0,0.4v9.7c-0.1,1.8,1.3,3.4,3.2,3.5c1.8,0.1,3.4-1.3,3.5-3.2c0-0.1,0-0.2,0-0.4V10.7z M128.8,10.7v9.7
						c0,3.6-2.9,6.5-6.5,6.5s-6.5-2.9-6.5-6.5l0,0v-9.7c0-3.6,2.9-6.5,6.5-6.5S128.8,7.1,128.8,10.7z M108.5,4h-8.3
						c-0.9,0-1.5,0.7-1.5,1.6c0,0.9,0.7,1.5,1.5,1.6h2.6v18.2c0,0.9,0.7,1.6,1.5,1.6c0.9,0,1.6-0.7,1.6-1.6c0,0,0,0,0,0V7.2h2.6
						c0.8,0,1.5-0.7,1.4-1.6C110,4.8,109.4,4,108.5,4z M88.2,17.8l-2-6.6l-1.9,6.6H88.2z M93.7,25c0,0.1,0,0.3,0,0.4
						c0,0.9-0.6,1.6-1.5,1.6c-0.7,0-1.4-0.4-1.6-1.1L89.2,21h-5.8l-1.4,4.9c-0.3,0.8-1.2,1.2-2,0.9c-0.6-0.2-1-0.8-1-1.4
						c0-0.1,0-0.3,0-0.4l1.2-4h-1.4c-0.9,0-1.6-0.7-1.5-1.6c0,0,0,0,0,0c0-0.8,0.7-1.5,1.5-1.6c0,0,0,0,0,0H81l3.7-12.6
						c0.2-0.7,0.8-1.1,1.5-1.1c0.7,0,1.3,0.5,1.5,1.1L93.7,25z M65.9,4.1c-1.5,0-2.9,0.6-4,1.7c0,0-0.1,0.1-0.1,0.1
						c-2.2-2.3-5.8-2.4-8.1-0.2c-1.2,1.2-1.9,2.8-1.8,4.5v15.3c0.1,0.9,0.8,1.5,1.7,1.4c0.8-0.1,1.4-0.7,1.4-1.4V10.1
						c-0.2-1.4,0.8-2.7,2.2-2.9c1.4-0.2,2.7,0.8,2.9,2.2c0,0.2,0,0.4,0,0.6v13.7h-1.3c-0.9,0-1.6,0.7-1.6,1.6c0,0.9,0.7,1.5,1.5,1.6
						h5.7c0.9,0,1.6-0.7,1.6-1.5c0,0,0,0,0,0c0-0.9-0.7-1.6-1.6-1.6h-1.3V10.1c-0.2-1.4,0.9-2.7,2.3-2.9c1.4-0.2,2.7,0.9,2.9,2.3
						c0,0.2,0,0.4,0,0.6v15.3c0,0.9,0.7,1.6,1.6,1.6c0,0,0,0,0,0c0.8,0,1.5-0.7,1.5-1.5c0,0,0,0,0,0V10.1c0.2-3.1-2.2-5.9-5.4-6
						C66.1,4.1,66,4.1,65.9,4.1z M45.3,20.5c0,1.8-0.8,3.6-2.2,4.8c-1.3,1.1-3,1.7-4.7,1.7H35c-0.8,0-1.5-0.7-1.5-1.5c0,0,0,0,0,0
						c0-0.9,0.7-1.6,1.5-1.6c0,0,0,0,0,0h3.5c1,0,1.9-0.3,2.6-0.9c0.7-0.6,1.1-1.5,1.1-2.4c0-0.9-0.4-1.8-1.1-2.4
						c-0.7-0.6-1.6-1-2.6-1c-1.7,0-3.4-0.6-4.6-1.9c-1.2-1.2-1.9-2.8-1.9-4.6c0-3.6,2.8-6.6,6.4-6.6c0,0,0,0,0.1,0h3.7
						c0.9,0,1.6,0.7,1.5,1.6c0,0,0,0,0,0c0,0.8-0.7,1.5-1.5,1.6c0,0,0,0,0,0h-3.7c-1.9,0-3.4,1.5-3.4,3.4c0,0,0,0,0,0.1
						c0,1.8,1.4,3.3,3.2,3.3c0.1,0,0.1,0,0.2,0c1.7,0,3.4,0.6,4.7,1.8C44.6,17,45.3,18.7,45.3,20.5L45.3,20.5z"/>
				</g>
				<g id="Group-3-2">
					<g>
						<path id="Fill-1-2" class="st1" d="M17.1,21.2h-1.1c-0.2,0-0.4-0.1-0.4-0.3l-0.2-0.7c-0.1-0.2-0.2-0.3-0.4-0.3h-4.4
							c-0.2,0-0.4,0.1-0.4,0.3l-0.2,0.7c-0.1,0.2-0.2,0.3-0.4,0.3H8.5L7,16.6h11.5L17.1,21.2z M16.3,23.6c-0.3,0-0.6-0.3-0.6-0.6
							c0,0,0,0,0,0c0-0.3,0.3-0.6,0.6-0.6s0.6,0.3,0.6,0.6l0,0C16.9,23.3,16.7,23.6,16.3,23.6C16.3,23.6,16.3,23.6,16.3,23.6z
							 M12.8,26.9c-1.2,0-2.3-1-2.3-2.2c0-1.2,1-2.3,2.2-2.3s2.3,1,2.3,2.2c0,0,0,0,0,0C15,25.9,14.1,26.9,12.8,26.9
							C12.8,26.9,12.8,26.9,12.8,26.9L12.8,26.9z M21.1,7.5c0.1-0.4,0.2-0.9,0.1-1.3C21,4.9,20,3.8,18.6,3.6
							c-0.7-0.1-1.3,0.1-1.9,0.5C15.8,1.7,13.5,0,10.9,0C7.4,0.1,4.6,2.8,4.5,6.3C1.7,6.7-0.3,9.2,0,12.1c0.3,2.6,2.5,4.5,5.1,4.5h1
							l1.4,4.6H6.9c-0.2,0-0.4,0.2-0.4,0.5c0,0,0,0,0,0v5.9c0,0.2,0.2,0.5,0.4,0.5c0,0,0,0,0,0h11.8c0.2,0,0.4-0.2,0.4-0.5
							c0,0,0,0,0,0v-5.9c0-0.2-0.2-0.5-0.4-0.5c0,0,0,0,0,0H18l1.4-4.6h1c2.5,0,4.5-2.1,4.5-4.6c0,0,0,0,0-0.1
							C25,9.7,23.3,7.8,21.1,7.5z"/>
					</g>
				</g>
				<path id="工事現場専用フォトクラウドサービス" class="st2" d="M13.5,43.1v-0.9h-4v-5.5H13v-1H5.1v1h3.4v5.5
					H4.5v0.9H13.5z M17.3,43.8c0.6,0,1.1,0,1.7-0.1c0.3-0.1,0.5-0.3,0.5-0.8v-0.5h2.1v0.4h0.9V41h1v-0.7h-1V39h-3.1v-0.6h2.9v-1.8
					h-2.9v-0.5h3.9v-0.8h-3.9v-0.7h-0.9v0.7h-3.8v0.8h3.8v0.5h-2.8v1.8h2.8V39h-3v0.7h3v0.6h-4V41h4v0.6h-3.1v0.7h3.1v0.5
					c0,0.2-0.1,0.2-0.2,0.2s-0.8,0-1.3,0C17.1,43.3,17.2,43.6,17.3,43.8z M18.5,37.8h-1.9v-0.6h1.9V37.8z M21.4,37.8h-2v-0.6h2V37.8
					z M21.6,40.2h-2.1v-0.6h2.1L21.6,40.2z M21.6,41.6h-2.1V41h2.1L21.6,41.6z M27.4,43.8c1.6-0.3,2.7-1.7,2.7-3.3h0.8v2.1
					c0,0.8,0.2,1.1,1,1.1h0.9c0.7,0,0.9-0.3,1-1.6c-0.3-0.1-0.5-0.2-0.8-0.3c0,1-0.1,1.2-0.3,1.2h-0.6c-0.2,0-0.2,0-0.2-0.3v-2.1
					h1.3V35h-4.8v5.5h0.8c0,1.3-1,2.4-2.3,2.6C27.1,43.3,27.3,43.6,27.4,43.8L27.4,43.8z M24.5,42.3c1-0.3,2.3-0.7,3.6-1L28,40.4
					l-1.3,0.4v-2h1.1v-0.9h-1.1V36h1.2v-0.9h-3.4V36h1.3v2h-1.2v0.9h1.2V41c-0.6,0.2-1.1,0.3-1.5,0.4L24.5,42.3z M32.2,36.6h-3v-0.8
					h3V36.6z M32.2,38.2h-3v-0.8h3V38.2z M32.2,39.7h-3v-0.8h3V39.7z M34.7,42.1c0.8-0.4,1.9-0.9,2.9-1.5l-0.2-0.8l-0.9,0.4v-2.6h1
					v-0.9h-1v-2h-0.9v2h-1.1v0.9h1.1v3l-1.3,0.5L34.7,42.1z M42.9,38.2v-3.3h-4.6v3.3H42.9z M42,36.2h-2.9v-0.7H42L42,36.2z
					 M42,37.5h-2.9v-0.7H42L42,37.5z M39.8,43.8c0.9-0.8,1.6-1.8,2-3h0.6c0,0.7-0.1,1.5-0.4,2.2C42,43,41.9,43,41.7,43h-0.2
					c-0.2,0-0.4,0-0.6,0c0.1,0.2,0.2,0.5,0.2,0.8c0.3,0,0.7,0,1,0c0.2,0,0.4-0.1,0.6-0.3c0.3-0.3,0.4-1.1,0.6-3.1c0-0.1,0-0.3,0-0.3
					h-4.2c0.1-0.2,0.3-0.4,0.4-0.6h4v-0.8h-6.2v0.8h1.3c-0.5,0.8-1.1,1.4-1.9,1.8c0.2,0.2,0.4,0.4,0.6,0.6c0.5-0.3,0.9-0.7,1.2-1.1
					h0.8c-0.6,0.8-1.3,1.5-2.2,2c0.2,0.2,0.4,0.3,0.6,0.6c1-0.7,1.8-1.6,2.4-2.6h0.8c-0.4,1-1,1.9-1.9,2.5
					C39.4,43.4,39.6,43.6,39.8,43.8L39.8,43.8z M49,43.8c0.6,0,1.2,0,1.8-0.1c0.4-0.1,0.5-0.4,0.5-0.8v-1.4h2.2v-0.8h-2.2V40h1.3
					v-3.3h-3.1v-0.6h3.8v-0.8h-3.8v-0.7h-0.9v0.7h-3.7v0.8h3.7v0.6h-3V40h4.8v0.7h-5.8v0.8h5.8v1.4c0,0.1,0,0.2-0.2,0.2h-0.3h-1
					C48.9,43.3,49,43.5,49,43.8L49,43.8z M48.5,38h-2.1v-0.7h2.1V38z M51.6,38h-2.2v-0.7h2.2V38z M48.5,39.3h-2.1v-0.7h2.1V39.3z
					 M51.6,39.3h-2.2v-0.7h2.2V39.3z M47.5,43.3l0.7-0.6c-0.5-0.5-1-1-1.5-1.3L46,42C46.6,42.4,47.1,42.8,47.5,43.3L47.5,43.3z
					 M55.1,43.8c0.7-0.9,1.1-1.9,1.2-3h2.3v2.9h0.9v-2.8H62v1.8c0,0.2-0.1,0.2-0.2,0.2s-0.8,0-1.5,0c0.1,0.3,0.2,0.6,0.3,0.9
					c0.6,0.1,1.3,0,1.9-0.2c0.4-0.1,0.5-0.4,0.5-1v-7.3h-7.4v3.6c0,1.4-0.1,3.2-1.2,4.4C54.6,43.4,54.8,43.6,55.1,43.8L55.1,43.8z
					 M58.6,37.5h-2.2v-1.3h2.2L58.6,37.5z M62,37.5h-2.4v-1.3H62L62,37.5z M62,39.9h-2.4v-1.4H62L62,39.9z M58.6,39.9h-2.2
					c0-0.4,0-0.7,0-1.1v-0.4h2.2L58.6,39.9z M67.1,43.2c1.6-0.5,3-1.4,4-2.7c0.7-1.1,1.2-2.4,1.5-3.7c0-0.2,0.1-0.4,0.2-0.6L72,35.8
					c-0.2,0.1-0.4,0.1-0.6,0.1h-4.9c-0.4,0-0.7,0-1.1-0.1V37c0.2,0,0.7,0,1.1,0h4.9c-0.2,1.1-0.6,2.1-1.3,3c-1,1.2-2.4,2.1-3.9,2.4
					L67.1,43.2z M79.8,43.6c0.4,0,0.8-0.3,0.8-0.7c0,0,0-0.1,0-0.1c0-1,0-2.5-0.1-3.7h1.3h0.7v-1c-0.2,0-0.5,0.1-0.7,0.1h-1.3v-0.7
					c0-0.2,0-0.5,0-0.7h-1c0,0.2,0.1,0.5,0.1,0.7c0,0.2,0,0.4,0,0.7h-2.9c-0.3,0-0.5,0-0.8-0.1v1c0.3,0,0.6,0,0.8,0h2.4
					c-1,1.2-2.2,2.2-3.6,2.9l0.7,0.8c1.3-0.7,2.4-1.7,3.4-2.8c0,0.9,0,1.9,0,2.5c0,0.2-0.1,0.3-0.3,0.3c-0.4,0-0.8,0-1.2-0.1
					l0.1,0.9C78.8,43.7,79.4,43.7,79.8,43.6L79.8,43.6z M88.4,43.3c-0.1-0.4-0.1-0.9-0.1-1.3v-3c1.3,0.4,2.6,0.9,3.8,1.6l0.4-1.1
					c-1.4-0.6-2.8-1.2-4.2-1.6v-1.6c0-0.3,0-0.8,0.1-1.1h-1.2c0.1,0.4,0.1,0.7,0.1,1.1v5.8c0,0.4,0,0.9-0.1,1.3L88.4,43.3z
					 M96.8,43.5c1.6-0.5,2.9-1.5,4-2.8c0.8-1,1.4-2.2,1.8-3.4c0.1-0.2,0.2-0.4,0.3-0.6l-0.8-0.5c-0.2,0.1-0.5,0.1-0.8,0.1h-2.4
					L99,36c0.1-0.2,0.3-0.6,0.5-0.9l-1.2-0.4c-0.1,0.3-0.2,0.6-0.4,0.9c-0.7,1.4-1.8,2.5-3.1,3.3l0.9,0.7c1-0.7,1.8-1.5,2.5-2.4h3.1
					c-0.3,1.1-0.8,2.1-1.5,3c-1.1,1.2-2.4,2.1-4,2.5L96.8,43.5z M112.1,36.5v-1c-0.3,0-0.7,0-1,0h-3.9c-0.3,0-0.7,0-1,0v1
					c0.3,0,0.6,0,1,0h3.9C111.5,36.5,111.9,36.5,112.1,36.5L112.1,36.5z M107.7,43.5c1.4-0.4,2.6-1.1,3.6-2.1
					c0.7-0.8,1.2-1.8,1.5-2.8c0-0.1,0.1-0.2,0.2-0.3l-0.7-0.4c-0.2,0.1-0.4,0.1-0.6,0.1h-5.1c-0.3,0-0.7,0-1.1-0.1v1
					c0.4,0,0.8,0,1.1,0h5.1c-0.2,0.7-0.6,1.4-1.1,2c-1,0.9-2.2,1.6-3.5,1.8L107.7,43.5z M117.8,43.5c1.7-0.4,3.1-1.4,4-2.9
					c0.5-0.9,0.8-1.9,1-2.9c0-0.2,0.1-0.5,0.2-0.7l-0.7-0.4c-0.2,0.1-0.5,0.1-0.8,0.1h-2v-0.9c0-0.3,0-0.6,0.1-0.8h-1.2
					c0,0.3,0.1,0.6,0.1,0.8v0.9h-2.2c-0.3,0-0.7,0-1,0c0,0.3,0,0.5,0,0.8v1.8c0,0.2,0,0.5,0,0.7h1.1c0-0.2,0-0.4,0-0.7v-1.7h5.3
					c-0.1,1-0.4,1.9-0.9,2.8c-0.6,0.9-1.5,1.5-2.5,1.9c-0.4,0.1-0.8,0.3-1.2,0.3L117.8,43.5z M132.2,37l0.7-0.3
					c-0.3-0.5-0.6-1-0.9-1.5l-0.7,0.3C131.6,36,131.9,36.5,132.2,37z M128.1,43.5c0-0.4-0.1-1-0.1-1.3v-3.1c1.3,0.4,2.6,0.9,3.8,1.5
					l0.4-1.1c-1.4-0.6-2.8-1.2-4.3-1.6v-1.6c0-0.4,0-0.8,0.1-1.1h-1.2c0.1,0.4,0.1,0.7,0.1,1.1v5.8c0,0.4,0,0.9-0.1,1.3L128.1,43.5z
					 M130.9,37.5l0.7-0.3c-0.3-0.5-0.6-1-0.9-1.5L130,36C130.3,36.5,130.6,37,130.9,37.5L130.9,37.5z M138.4,43.5
					c2.3-1,2.9-2.5,2.9-5.1v-0.3h1c0.5,0,0.8,0,1,0v-1c-0.3,0-0.7,0.1-1,0.1h-0.9V36c0-0.3,0-0.6,0.1-0.9h-1.1
					c0,0.3,0.1,0.6,0.1,0.9v1.2h-2.6V36c0-0.3,0-0.5,0.1-0.8h-1.2c0,0.1,0.1,0.5,0.1,0.8v1.2h-1c-0.3,0-0.7,0-1-0.1v1.1
					c0.2,0,0.6,0,1,0h1v1.5c0,0.4,0,0.8-0.1,1h1.1c0-0.1,0-0.6,0-1v-1.5h2.6v0.4c0,2.7-0.9,3.5-2.8,4.2L138.4,43.5z M153,39.8v-1.2
					c-0.2,0-0.6,0.1-1.1,0.1h-5.4c-0.5,0-1.2,0-1.5-0.1v1.2c0.3,0,0.9,0,1.5,0h5.4C152.3,39.7,152.8,39.8,153,39.8z M162.6,36.3
					l0.6-0.3c-0.2-0.5-0.5-0.9-0.8-1.4l-0.6,0.3C162.1,35.3,162.4,35.8,162.6,36.3L162.6,36.3z M161.5,36.7l0.6-0.3
					c-0.2-0.5-0.5-0.9-0.8-1.4l-0.6,0.3C161,35.8,161.2,36.2,161.5,36.7L161.5,36.7z M158.7,43.3c1.2,0,2.3-0.1,3.5-0.2V42
					c-1.1,0.2-2.3,0.3-3.4,0.3c-0.4,0-0.8,0-1.2-0.1c-0.5-0.1-0.7-0.2-0.7-0.7v-2c1.4-0.4,2.7-0.8,4-1.3c0.3-0.1,0.7-0.3,1-0.4
					l-0.4-1c-0.3,0.2-0.7,0.4-1,0.5c-1.2,0.5-2.4,0.9-3.6,1.2v-2.1c0-0.3,0-0.6,0.1-0.9h-1.2c0,0.3,0.1,0.6,0.1,0.9v5.5
					c0,0.8,0.5,1.2,1.3,1.4C157.6,43.3,158.1,43.3,158.7,43.3L158.7,43.3z M172.2,43.3l0.9-0.8c-0.9-1-1.8-2-2.9-2.9
					c0.7-0.9,1.2-1.8,1.6-2.8c0.1-0.2,0.2-0.4,0.3-0.5l-0.6-0.5c-0.3,0.1-0.6,0.1-0.9,0.1h-3.7c-0.4,0-0.7,0-1.1-0.1V37
					c0.2,0,0.7-0.1,1.1-0.1h3.7c-0.4,1-0.9,1.8-1.6,2.6c-1.1,1.3-2.5,2.3-4.1,2.9l0.8,0.8c1.5-0.7,2.8-1.7,3.9-2.9
					C170.5,41.3,171.4,42.3,172.2,43.3L172.2,43.3z"/>
			</g>
		</g>
	</g>
</g>
<circle class="st3" cx="176.5" cy="23.5" r="3.3"/>
<text transform="matrix(1 0 0 1 174.956 24.9897)" class="st4 st5 st6">R</text>
</svg>
