<?xml version="1.0" encoding="utf-8"?>
<!-- Generator: Adobe Illustrator 24.0.3, SVG Export Plug-In . SVG Version: 6.00 Build 0)  -->
<svg version="1.1" id="レイヤー_1" xmlns="http://www.w3.org/2000/svg" xmlns:xlink="http://www.w3.org/1999/xlink" x="0px"
	 y="0px" viewBox="0 0 326 70.3" style="enable-background:new 0 0 326 70.3;" xml:space="preserve">
<style type="text/css">
	.st0{fill-rule:evenodd;clip-rule:evenodd;fill:#FFFFFF;}
	.st1{fill:#FFFFFF;}
	.st2{font-family:'KozGoPr6N-Regular-83pv-RKSJ-H';}
	.st3{font-size:14px;}
	.st4{letter-spacing:-2;}
	.st5{letter-spacing:-3;}
	.st6{letter-spacing:-1;}
	.st7{fill:none;stroke:#FFFFFF;stroke-width:0.3;stroke-miterlimit:10;}
	.st8{font-family:'HelveticaNeueLTPro-Lt';}
	.st9{font-size:5.5328px;}
</style>
<title>レイヤー 5</title>
<g id="レイヤー_2_1_">
	<g id="レイヤー_5">
		<g id="Group-3">
			<path id="Fill-1" class="st0" d="M313.3,30.5c-1.5,0-2.7,1.2-2.8,2.7v24.9c0,3.2-2.6,5.8-5.8,5.8s-5.8-2.6-5.8-5.8l0,0V33.2
				c0-1.5-1.2-2.7-2.8-2.7c-1.5,0-2.7,1.2-2.7,2.7c0,0,0,0,0,0v24.9c0.2,6.2,5.4,11.1,11.6,10.9c6-0.2,10.8-5,10.9-10.9V33.2
				C316,31.7,314.8,30.5,313.3,30.5C313.3,30.5,313.3,30.5,313.3,30.5z M273,41.7c0-3.2-2.6-5.8-5.8-5.8c0,0,0,0,0,0h-3v11.3h3
				c3.1,0.1,5.7-2.3,5.8-5.4C273,41.8,273,41.7,273,41.7z M281,65.3c0.2,0.4,0.3,0.9,0.3,1.4c0,1.5-1.2,2.6-2.6,2.7c0,0,0,0-0.1,0
				c-1,0-1.9-0.5-2.4-1.3l-8.9-15.4h-3.2v14.1c0,1.5-1.2,2.7-2.7,2.7c-1.5,0-2.7-1.2-2.8-2.7V52.6h-3c-1.5,0-2.7-1.1-2.7-2.6
				c0,0,0,0,0-0.1c0-1.5,1.2-2.7,2.7-2.7c0,0,0,0,0,0h3v-14c0-1.5,1.3-2.7,2.8-2.7h5.7c6.2,0,11.2,5,11.2,11.1c0,0,0,0,0,0.1
				c0,3.9-2.1,7.6-5.6,9.4L281,65.3z M237.1,41.7c0-3.2-2.6-5.8-5.8-5.8c-3.2,0-5.8,2.6-5.8,5.8v16.5c0,3.2,2.6,5.8,5.8,5.8
				c3.2,0,5.8-2.6,5.8-5.8V41.7z M242.6,41.7v16.5c0,6.2-5.1,11.3-11.3,11.3c-6.2,0-11.3-5-11.3-11.3V41.7c0-6.2,5-11.3,11.3-11.3
				S242.6,35.4,242.6,41.7L242.6,41.7z M207.2,30.3h-14.4c-1.5,0-2.7,1.2-2.7,2.7c0,1.5,1.2,2.6,2.7,2.7h4.5v30.9
				c0,1.5,1.2,2.7,2.7,2.7c0,0,0,0,0,0c1.5,0,2.7-1.2,2.8-2.7V35.7h4.4c1.5,0,2.7-1.1,2.7-2.6c0,0,0,0,0-0.1
				C209.9,31.6,208.7,30.3,207.2,30.3C207.2,30.3,207.2,30.3,207.2,30.3L207.2,30.3z M171.9,53.7l-3.5-11.3L165,53.7H171.9z
				 M181.5,65.8c0.1,0.2,0.1,0.5,0.1,0.8c0,1.5-1.2,2.7-2.7,2.7c-1.2,0-2.3-0.7-2.7-1.9l-2.6-8.4h-10.2l-2.5,8.4
				c-0.4,1.1-1.4,1.9-2.6,1.9c-1.5,0-2.7-1.2-2.7-2.6c0,0,0-0.1,0-0.1c0-0.3,0-0.5,0.1-0.8l2.1-6.8h-2.4c-1.5,0-2.7-1.2-2.7-2.7
				c0,0,0,0,0,0c0-1.5,1.2-2.6,2.6-2.7c0,0,0,0,0.1,0h4l6.4-21.3c0.5-1.4,2-2.2,3.4-1.8c0.8,0.3,1.5,0.9,1.8,1.8L181.5,65.8z
				 M133.1,30.5c-2.6,0-5.1,1-7,2.8c-0.1,0.1-0.2,0.2-0.2,0.2c-1.9-2-4.5-3.1-7.2-3.1c-5.5-0.1-9.9,4.3-10,9.7c0,0.2,0,0.4,0,0.5
				v25.9c0,1.5,1.2,2.7,2.7,2.7s2.7-1.2,2.7-2.7V40.8c0-3.2,2-4.9,4.5-4.9c2.3,0,4.4,1.6,4.4,4.9v23.2h-2.3c-1.5,0-2.7,1.2-2.8,2.7
				c0,1.5,1.3,2.7,2.8,2.7c0,0,0,0,0,0h10c1.5,0,2.7-1.2,2.8-2.6c0,0,0,0,0,0c0-1.5-1.3-2.7-2.8-2.7h-2.3V40.8c0-3.2,2-4.9,4.5-4.9
				c2.3,0,4.4,1.6,4.4,4.9v25.9c0,1.5,1.3,2.7,2.7,2.7c0,0,0,0,0,0c1.5,0,2.7-1.1,2.7-2.6c0,0,0,0,0-0.1V40.8
				C143,34.6,138.5,30.5,133.1,30.5L133.1,30.5z M97.2,58.4c0,3.1-1.4,6.1-3.8,8.1c-2.3,1.9-5.2,2.9-8.1,2.8h-6
				c-1.5,0-2.7-1.1-2.7-2.6c0,0,0,0,0-0.1c0-1.5,1.2-2.7,2.7-2.7c0,0,0,0,0,0h6c1.7,0,3.3-0.5,4.6-1.6c1.2-1,1.8-2.5,1.8-4
				c0-1.6-0.7-3.1-1.9-4.1c-1.3-1.1-2.9-1.6-4.5-1.7c-3,0-5.9-1.1-8-3.1c-2.1-2-3.3-4.8-3.3-7.8c0-6.2,5-11.2,11.2-11.2
				c0,0,0.1,0,0.1,0h6.4c1.5,0,2.7,1.2,2.7,2.7c0,0,0,0,0,0c0,1.5-1.2,2.6-2.6,2.7c0,0,0,0-0.1,0h-6.4c-3.2,0-5.8,2.5-5.9,5.7
				c0,0,0,0.1,0,0.1c0,3.1,2.5,5.6,5.6,5.6c0.1,0,0.2,0,0.2,0c3,0,5.9,1,8.1,3C95.8,52.3,97.2,55.3,97.2,58.4L97.2,58.4z"/>
		</g>
		<g id="Group-6">
			<g>
				<path id="Fill-4" class="st0" d="M42.5,54h-2.6c-0.5,0-0.9-0.3-1-0.8l-0.5-1.6c-0.1-0.5-0.6-0.8-1-0.8h-11c-0.5,0-0.9,0.3-1,0.8
					l-0.5,1.6c-0.1,0.4-0.5,0.7-1,0.8H21l-3.5-11H46L42.5,54z M40.5,59.8c-0.8,0-1.5-0.7-1.5-1.5s0.7-1.5,1.5-1.5
					c0.8,0,1.5,0.7,1.5,1.5c0,0,0,0,0,0C42,59.2,41.3,59.8,40.5,59.8L40.5,59.8L40.5,59.8z M31.7,67.6c-3,0-5.4-2.4-5.4-5.4
					c0-3,2.4-5.4,5.4-5.4c3,0,5.4,2.4,5.4,5.4C37.1,65.2,34.7,67.6,31.7,67.6C31.7,67.6,31.7,67.6,31.7,67.6z M52.4,21.4
					c0.3-1,0.4-2.1,0.3-3.2c-0.6-3.9-4.2-6.7-8.2-6.1c-1,0.2-2.1,0.5-2.9,1.1C38.3,5.1,29.1,1.2,21,4.4c-5.7,2.3-9.6,7.8-9.9,14
					C4.8,19-0.1,24.5,0,30.9C0.2,37.7,5.8,43.1,12.6,43h2.5l3.5,11h-1.5c-0.6,0-1.1,0.5-1.1,1.1v14.1c0,0.6,0.5,1.1,1.1,1.1h29.1
					c0.6,0,1.1-0.5,1.1-1.1c0,0,0,0,0,0V55.1c0-0.6-0.5-1.1-1.1-1.1c0,0,0,0,0,0h-1.5l3.5-11h2.5C57,43,62,38.1,62,32
					c0,0,0-0.1,0-0.1C61.9,26.5,57.8,22,52.4,21.4z"/>
			</g>
		</g>
		<g id="工事現場専用フォトクラウドサービス">
			<text transform="matrix(1 0 0 1 77 12.32)" class="st1 st2 st3">工事現場専</text>
			<text transform="matrix(1 0 0 1 147 12.32)" class="st1 st2 st3">用</text>
			<text transform="matrix(1 0 0 1 160.3 12.32)" class="st1 st2 st3 st4">フ</text>
			<text transform="matrix(1 0 0 1 172.2 12.32)" class="st1 st2 st3 st5">ォ</text>
			<text transform="matrix(1 0 0 1 182.98 12.32)" class="st1 st2 st3 st6">ト</text>
			<text transform="matrix(1 0 0 1 195.02 12.32)" class="st1 st2 st3 st6">ク</text>
			<text transform="matrix(1 0 0 1 207.2 12.32)" class="st1 st2 st3 st6">ラ</text>
			<text transform="matrix(1 0 0 1 219.8 12.32)" class="st1 st2 st3 st4">ウ</text>
			<text transform="matrix(1 0 0 1 231.42 12.32)" class="st1 st2 st3">ド</text>
			<text transform="matrix(1 0 0 1 245.14 12.32)" class="st1 st2 st3">サ</text>
			<text transform="matrix(1 0 0 1 259 12.32)" class="st1 st2 st3">ー</text>
			<text transform="matrix(1 0 0 1 272.72 12.32)" class="st1 st2 st3">ビ</text>
			<text transform="matrix(1 0 0 1 285.88 12.32)" class="st1 st2 st3">ス</text>
		</g>
	</g>
</g>
<circle class="st7" cx="321.5" cy="65.2" r="3.9"/>
<text transform="matrix(1 0 0 1 319.668 66.9404)" class="st1 st8 st9">R</text>
</svg>
