<svg xmlns="http://www.w3.org/2000/svg" viewBox="0 0 147.02 132"><defs><style>.cls-1{fill:none;}.cls-1,.cls-3{stroke:#2a3458;stroke-linecap:round;stroke-linejoin:round;stroke-width:2px;}.cls-2{fill:#fff;}.cls-3{fill:#2a3458;}</style></defs><title>アセット 17-90</title><g id="レイヤー_2" data-name="レイヤー 2"><g id="line"><polygon class="cls-1" points="8.82 110.55 8.82 110.55 10.29 109.08 8.82 110.55"/><path class="cls-2" d="M3.84,80.65,1,83.48v17.87H9.16a31.62,31.62,0,0,0,2.59,6.26L6,113.38,18.62,126l2.83-2.84,2.94-2.93a31.62,31.62,0,0,0,6.26,2.59V131H48.52l2.83-2.84h0v-6.31a31.52,31.52,0,0,0,3.43-1.6L60.55,126l2.83-2.84h0L69,117.54V128a3,3,0,0,0,3,3h71a3,3,0,0,0,3-3V4a3,3,0,0,0-3-3H72a3,3,0,0,0-3,3V61.62L63.38,56l-5.77,5.77a31.62,31.62,0,0,0-6.26-2.59V51H33.48l-2.83,2.84v6.3h0a31.52,31.52,0,0,0-3.43,1.6L21.45,56,8.82,68.62,6,71.45l5.75,5.75v0a32,32,0,0,0-1.59,3.41H3.84m27.48,8.93a11,11,0,0,1,2-6.3A11.1,11.1,0,0,1,48.74,98.69a11.08,11.08,0,0,1-17.42-9.11Z"/><path class="cls-3" d="M71.85,101.35h6.31L81,98.52H72.84C72.55,99.48,72.22,100.43,71.85,101.35Z"/><path class="cls-3" d="M51.35,120v1.85a31.52,31.52,0,0,0,3.43-1.6L60.55,126l2.83-2.84-5.77-5.77A30.79,30.79,0,0,1,51.35,120Z"/><path class="cls-3" d="M14.59,74.39,8.82,68.62,6,71.45l5.77,5.77a31.52,31.52,0,0,0-1.6,3.43H12A31,31,0,0,1,14.59,74.39Z"/><path class="cls-3" d="M33.48,51l-2.83,2.84v6.31h0c.92-.37,1.87-.7,2.83-1Z"/><path class="cls-3" d="M14.59,104.78A31.27,31.27,0,0,1,12,98.52H3.84V80.65L1,83.48v17.87H9.16a31.62,31.62,0,0,0,2.59,6.26L6,113.38,18.62,126l2.83-2.84L8.82,110.55Z"/><path class="cls-3" d="M33.48,120a31.27,31.27,0,0,1-6.26-2.59l-5.77,5.77,2.94-2.93a31.62,31.62,0,0,0,6.26,2.59V131H48.52l2.83-2.84H33.48Z"/><path class="cls-3" d="M42.42,78.48a11.1,11.1,0,0,0-9.14,4.8A11.1,11.1,0,0,1,48.72,98.72a11.1,11.1,0,0,0-6.3-20.24Z"/><path class="cls-1" d="M72.84,80.65a31.62,31.62,0,0,0-2.59-6.26L76,68.62,63.38,56l-5.77,5.77a31.62,31.62,0,0,0-6.26-2.59V51H33.48v8.16a31.87,31.87,0,0,0-6.26,2.59L21.45,56,8.82,68.62l5.77,5.77A31,31,0,0,0,12,80.65H3.84V98.52H12a31.27,31.27,0,0,0,2.59,6.26l-5.77,5.77,12.63,12.63,5.77-5.77A31.27,31.27,0,0,0,33.48,120v8.16H51.35V120a31,31,0,0,0,6.26-2.59l5.77,5.77L76,110.55l-5.77-5.77a31.87,31.87,0,0,0,2.59-6.26H81V80.65ZM53.52,89.58a11.1,11.1,0,1,1-11.1-11.1A11.1,11.1,0,0,1,53.52,89.58Z"/><path class="cls-1" d="M69,56V4a3,3,0,0,1,3-3h71a3,3,0,0,1,3,3V128a3,3,0,0,1-3,3H72a3,3,0,0,1-3-3"/><path class="cls-1" d="M76.52,62.3V13a1,1,0,0,1,1-1h60a1,1,0,0,1,1,1V123a1,1,0,0,1-1,1h-60a1,1,0,0,1-1-1"/><line class="cls-1" x1="96.73" y1="6.51" x2="117.15" y2="6.51"/><polyline class="cls-1" points="93.12 51.54 93.12 27.34 127.6 27.34 127.6 51.54"/><polyline class="cls-1" points="121.93 24.51 121.93 21.67 87.45 21.67 87.45 45.87 90.28 45.87"/><polygon class="cls-1" points="127.6 49.27 114.96 36.63 112.2 39.38 104.63 31.8 93.12 43.32 93.12 51.97 127.6 51.97 127.6 49.27"/><circle class="cls-1" cx="121.67" cy="33.62" r="3.55"/><line class="cls-1" x1="88.22" y1="59.69" x2="125.65" y2="59.69"/><polyline class="cls-1" points="93.12 102.22 93.12 78.03 127.6 78.03 127.6 102.22"/><polyline class="cls-1" points="121.93 75.19 121.93 72.36 87.45 72.36 87.45 96.55 90.28 96.55"/><polygon class="cls-1" points="127.6 99.96 114.96 87.31 112.2 90.06 104.63 82.49 93.12 94 93.12 102.65 127.6 102.65 127.6 99.96"/><circle class="cls-1" cx="121.67" cy="84.3" r="3.55"/><line class="cls-1" x1="88.22" y1="110.37" x2="125.65" y2="110.37"/></g></g></svg>