<svg xmlns="http://www.w3.org/2000/svg" viewBox="0 0 147 132"><defs><style>.cls-1,.cls-4{fill:#2a3458;}.cls-2{fill:none;}.cls-2,.cls-4{stroke:#2a3458;stroke-linecap:round;stroke-linejoin:round;stroke-width:2px;}.cls-3{fill:#fff;}</style></defs><title>アセット 19-90</title><g id="レイヤー_2" data-name="レイヤー 2"><g id="line"><path class="cls-1" d="M11.35,50.65V47.12L18.44,36.2H11.66V32.14H23.91v3.54L16.78,46.6h7.13v4Z"/><path class="cls-1" d="M29.16,50.65V32.14h4.55V50.65Z"/><path class="cls-1" d="M47.38,44.05H44.6v6.6H40.05V32.14h7.33a6,6,0,1,1,0,11.91Zm-.21-7.83H44.6V40h2.57a1.88,1.88,0,1,0,0-3.75Z"/><polygon class="cls-2" points="125.49 1 146 21.51 125.49 21.51 125.49 1"/><path class="cls-1" d="M99,44.89H96.2v6.6H91.65V33H99a6,6,0,1,1,0,11.91Zm-.21-7.83H96.2v3.75h2.57a1.88,1.88,0,1,0,0-3.75Z"/><path class="cls-1" d="M120.33,49.67a6.88,6.88,0,0,1-5,1.82h-6.87V33h6.87a6.92,6.92,0,0,1,5,1.82c2.16,2.16,1.92,4.53,1.92,7.44S122.49,47.52,120.33,49.67Zm-3.12-11.59A2.36,2.36,0,0,0,115,37h-2v10.4h2a2.38,2.38,0,0,0,2.19-1c.36-.52.49-1,.49-4.16S117.57,38.6,117.21,38.08Z"/><path class="cls-1" d="M130.47,37v3.25h6.86v4.05h-6.86v7.15h-4.55V33H138.5V37Z"/><path class="cls-3" d="M98.19,81.8H146V21.51L125.49,1H83V64.3H64.05V21.51L43.54,1H1V81.8H54.48v15h-16l3.18,3.18h0L75.09,131,108.5,99.94h0l-3.18-3.18H92.52v-15Z"/><path class="cls-1" d="M11.35,50.65V47.12L18.44,36.2H11.66V32.14H23.91v3.54L16.78,46.6h7.13v4Z"/><path class="cls-1" d="M29.16,50.65V32.14h4.55V50.65Z"/><path class="cls-1" d="M47.38,44.05H44.6v6.6H40.05V32.14h7.33a6,6,0,1,1,0,11.91Zm-.21-7.83H44.6V40h2.57a1.88,1.88,0,1,0,0-3.75Z"/><polyline class="cls-2" points="98.19 81.8 146 81.8 146 21.51 125.49 1 82.95 1 82.95 58.63"/><polygon class="cls-2" points="125.49 1 146 21.51 125.49 21.51 125.49 1"/><path class="cls-1" d="M99,44.89H96.2v6.6H91.65V33H99a6,6,0,1,1,0,11.91Zm-.21-7.83H96.2v3.75h2.57a1.88,1.88,0,1,0,0-3.75Z"/><path class="cls-1" d="M120.33,49.67a6.88,6.88,0,0,1-5,1.82h-6.87V33h6.87a6.92,6.92,0,0,1,5,1.82c2.16,2.16,1.92,4.53,1.92,7.44S122.49,47.52,120.33,49.67Zm-3.12-11.59A2.36,2.36,0,0,0,115,37h-2v10.4h2a2.38,2.38,0,0,0,2.19-1c.36-.52.49-1,.49-4.16S117.57,38.6,117.21,38.08Z"/><path class="cls-1" d="M130.47,37v3.25h6.86v4.05h-6.86v7.15h-4.55V33H138.5V37Z"/><polyline class="cls-2" points="64.05 58.63 64.05 21.51 43.54 1 1 1 1 81.8 48.81 81.8"/><polygon class="cls-2" points="43.54 1 64.05 21.51 43.54 21.51 43.54 1"/><polygon class="cls-4" points="108.5 99.94 108.5 99.94 105.32 96.76 92.52 96.76 92.52 99.94 108.5 99.94"/><polygon class="cls-2" points="57.67 99.94 57.67 67.48 92.52 67.48 92.52 99.94 108.5 99.94 75.09 131 41.68 99.94 57.67 99.94"/><polygon class="cls-4" points="57.67 67.48 92.52 67.48 92.52 67.48 89.33 64.3 54.48 64.3 54.48 96.76 38.5 96.76 41.68 99.94 41.68 99.94 57.67 99.94 57.67 67.48"/></g></g></svg>