<svg xmlns="http://www.w3.org/2000/svg" viewBox="0 0 147 132"><defs><style>.cls-1{fill:#fff;}.cls-2{fill:none;}.cls-2,.cls-3{stroke:#2a3458;stroke-linecap:round;stroke-linejoin:round;stroke-width:2px;}.cls-3{fill:#2a3458;}</style></defs><title>アセット 16-90</title><g id="レイヤー_2" data-name="レイヤー 2"><g id="line"><path class="cls-1" d="M143,1H72a3,3,0,0,0-3,3V51H10.42a6,6,0,0,0-5.73,4.22A6.82,6.82,0,0,0,1,61.27v62.87A6.86,6.86,0,0,0,7.86,131H143a3,3,0,0,0,3-3V4A3,3,0,0,0,143,1ZM11.27,127.58h-.85a6,6,0,0,1-6-6V57h0v64.58a6,6,0,0,0,6,6h.85ZM4.51,56l0,.2Z"/><rect class="cls-2" x="4.42" y="51" width="76.58" height="76.58" rx="6"/><path class="cls-3" d="M74.14,127.58H10.42a6,6,0,0,1-6-6V57a5.81,5.81,0,0,1,.27-1.78A6.82,6.82,0,0,0,1,61.27v62.87A6.86,6.86,0,0,0,7.86,131H70.73a6.82,6.82,0,0,0,6-3.69,5.81,5.81,0,0,1-1.78.27Z"/><polygon class="cls-3" points="62.66 94.94 48.36 94.94 48.36 109.24 37.06 109.24 37.06 94.94 22.76 94.94 22.76 83.64 37.06 83.64 37.06 69.34 48.36 69.34 48.36 83.64 62.66 83.64 62.66 94.94"/><path class="cls-2" d="M69,45.33V4a3,3,0,0,1,3-3h71a3,3,0,0,1,3,3V128a3,3,0,0,1-3,3H80.5"/><path class="cls-2" d="M76.5,45.33V13a1,1,0,0,1,1-1h60a1,1,0,0,1,1,1V123a1,1,0,0,1-1,1H85.76"/><line class="cls-2" x1="96.7" y1="6.51" x2="117.13" y2="6.51"/><polyline class="cls-2" points="93.09 51.54 93.09 27.34 127.58 27.34 127.58 51.54"/><polyline class="cls-2" points="121.91 24.51 121.91 21.67 87.42 21.67 87.42 45.87 90.26 45.87"/><polygon class="cls-2" points="127.58 49.27 114.93 36.63 112.18 39.38 104.61 31.8 93.09 43.32 93.09 51.97 127.58 51.97 127.58 49.27"/><circle class="cls-2" cx="121.64" cy="33.62" r="3.55"/><line class="cls-2" x1="88.2" y1="59.69" x2="125.63" y2="59.69"/><polyline class="cls-2" points="93.09 102.22 93.09 78.03 127.58 78.03 127.58 102.22"/><polyline class="cls-2" points="121.91 75.19 121.91 72.36 87.42 72.36 87.42 96.55 90.26 96.55"/><polygon class="cls-2" points="127.58 99.96 114.93 87.31 112.18 90.06 104.61 82.49 93.09 94 93.09 102.65 127.58 102.65 127.58 99.96"/><circle class="cls-2" cx="121.64" cy="84.3" r="3.55"/><line class="cls-2" x1="88.2" y1="110.37" x2="125.63" y2="110.37"/></g></g></svg>