<svg xmlns="http://www.w3.org/2000/svg" viewBox="0 0 147 131.23"><defs><style>.cls-1{fill:#fff;}.cls-2{fill:none;}.cls-2,.cls-3{stroke:#2a3458;stroke-linecap:round;stroke-linejoin:round;stroke-width:2px;}.cls-3{fill:#2a3458;}</style></defs><title>アセット 14-90</title><g id="レイヤー_2" data-name="レイヤー 2"><g id="line"><path class="cls-1" d="M129.93,56.17a25.15,25.15,0,0,0-34.5-33.34A35.14,35.14,0,0,0,27.76,36.14c0,1.12.06,2.22.16,3.3A33,33,0,0,0,34,104.91H54.48v25.32H89.33l3.19-3.18h0V104.91h28.25a25.23,25.23,0,0,0,9.16-48.74Z"/><polyline class="cls-2" points="55.95 76.06 43.77 76.06 43.77 30.99 103.23 30.99 103.23 76.06 94.65 76.06"/><polyline class="cls-2" points="47.58 71.71 47.58 35.34 99.42 35.34 99.42 71.71"/><polyline class="cls-2" points="90.25 72.36 99.42 72.36 99.42 68.31 80.41 49.29 76.28 53.43 64.89 42.05 47.58 59.36 47.58 72.36 59.84 72.36"/><circle class="cls-2" cx="90.5" cy="43.83" r="5.34"/><polygon class="cls-2" points="57.67 94.59 57.67 127.05 92.52 127.05 92.52 94.59 108.5 94.59 75.09 63.53 41.68 94.59 57.67 94.59"/><polygon class="cls-3" points="108.5 94.59 108.5 94.59 92.52 94.59 92.52 97.77 105.32 97.77 108.5 94.59"/><polygon class="cls-3" points="57.67 94.59 41.68 94.59 41.68 94.59 38.5 97.77 54.48 97.77 54.48 130.23 89.33 130.23 92.52 127.05 92.52 127.05 57.67 127.05 57.67 94.59"/><path class="cls-2" d="M98.19,104.91h22.58a25.23,25.23,0,0,0,9.16-48.74,25.15,25.15,0,0,0-34.5-33.34A35.14,35.14,0,0,0,27.76,36.14c0,1.12.06,2.22.16,3.3A33,33,0,0,0,34,104.91H49"/><path class="cls-2" d="M52.22,10.05A28.28,28.28,0,0,0,37.55,23.77"/><path class="cls-2" d="M57.3,8.51c-.75.16-1.49.34-2.22.55"/></g></g></svg>