<svg xmlns="http://www.w3.org/2000/svg" viewBox="0 0 147 131.87"><defs><style>.cls-1{fill:#fff;}.cls-2{fill:none;}.cls-2,.cls-3{stroke:#2a3458;stroke-linecap:round;stroke-linejoin:round;stroke-width:2px;}.cls-3,.cls-4{fill:#2a3458;}</style></defs><title>アセット 18-90</title><g id="レイヤー_2" data-name="レイヤー 2"><g id="line"><path class="cls-1" d="M48.29,110.41c-.14-.15-.29-.3-.46-.45a2.23,2.23,0,0,0-.24-.19,3.88,3.88,0,0,0-.31-.26c-.09-.08-.2-.15-.3-.23l-.31-.22-.37-.25-.3-.2-.4-.24-.32-.2-.42-.24-.35-.2-.42-.22-.39-.21-.44-.22-.38-.19-.47-.23-.38-.18-.47-.21-.39-.18-.44-.2-.42-.18-.4-.17-.45-.19-.4-.16-.43-.18-.4-.16-.41-.16-.39-.15-.39-.15-.36-.14-.34-.13h0l-.06,0-3.61-2.62V96.31a11.54,11.54,0,0,0,4.86-3.49,17.18,17.18,0,0,0,2.94-5.41,5.52,5.52,0,0,0,4.62-3.93,7.69,7.69,0,0,0,.25-1,6.25,6.25,0,0,0-1-4.69h0a42.08,42.08,0,0,0,.9-5h1.94a25.87,25.87,0,0,0-1.13-4.48A25,25,0,0,0,42.7,55.16c-4.17-6.79-10-7.47-14.87-7.47S17.14,48.37,13,55.16A25.05,25.05,0,0,0,9.58,68.35a25.87,25.87,0,0,0-1.13,4.48H9.79a23.46,23.46,0,0,0,.77,3.87l.45.56c-.1.11-.19.24-.28.36a6.18,6.18,0,0,0-1.12,4.86,6.37,6.37,0,0,0,.26,1h0a5.51,5.51,0,0,0,4.61,3.92h0a16.12,16.12,0,0,0,3.67,6.21,11.44,11.44,0,0,0,4.13,2.69v5.29l-3.34,2.5-.06,0h0l-1.39.53-.07,0-.7.28-.11,0-.63.26-.21.09-.57.24-.29.12-.48.21-.38.17-.41.19-.45.2-.39.19-.46.22-.38.19-.45.22c-.12.07-.24.14-.37.2l-.43.23a3.79,3.79,0,0,0-.34.2l-.43.24-.33.2-.39.24-.36.23-.31.21-.35.26-.26.2c-.13.09-.24.19-.35.28l-.2.17c-.17.15-.32.3-.46.45C3.49,114.08,1,130.87,1,130.87H54.22S51.73,114.08,48.29,110.41Z"/><polygon class="cls-1" points="110.87 1 64.55 1 64.55 20.93 49.25 20.93 49.25 58.9 95.56 58.9 95.56 38.98 110.87 38.98 110.87 1"/><path class="cls-1" d="M139.4,110.7c-3.84-3.61-13.33-6.18-13.33-6.18l-4.88-2.92V96.3c3.12-1.17,6-3.75,7.8-8.89a5.7,5.7,0,0,0,4.87-4.93,6.26,6.26,0,0,0-1-4.69c.05,0,.56.22.9-5h1.94a25.87,25.87,0,0,0-1.13-4.48,25,25,0,0,0-3.38-13.19c-4.17-6.79-10-7.47-14.87-7.47s-10.69.68-14.86,7.47A24.94,24.94,0,0,0,98.1,68.35,25.87,25.87,0,0,0,97,72.83h1.34a22.66,22.66,0,0,0,.77,3.87l.45.56a6.32,6.32,0,0,0-1.4,5.22A5.7,5.7,0,0,0,103,87.41c1.79,5.16,4.69,7.72,7.82,8.9h0v5.29l-4.17,2.92s-9.49,2.57-13.32,6.18-6.6,20.17-6.6,20.17H146S143.23,114.32,139.4,110.7Zm-6.51-32.91Z"/><polyline class="cls-2" points="64.55 17.65 64.55 1 110.87 1 110.87 38.98 99.63 38.98"/><polyline class="cls-2" points="67.52 17.45 67.52 4.38 107.9 4.38 107.9 35.59"/><polyline class="cls-2" points="88.06 18.11 81 11.05 74.47 17.58"/><polyline class="cls-2" points="99.63 35.59 107.9 35.59 107.9 31.5 93.09 16.69 91.6 18.19"/><circle class="cls-2" cx="100.38" cy="11.87" r="4.16"/><rect class="cls-2" x="49.25" y="20.92" width="46.32" height="37.98"/><rect class="cls-2" x="52.21" y="24.31" width="40.39" height="31.21"/><polygon class="cls-2" points="92.6 51.43 77.79 36.62 74.56 39.84 65.7 30.97 52.21 44.46 52.21 55.52 92.6 55.52 92.6 51.43"/><circle class="cls-2" cx="85.07" cy="31.79" r="4.16"/><path class="cls-2" d="M18.88,104.12c-3.79,1.41-9.7,3.88-11.95,6.29C3.49,114.08,1,130.87,1,130.87H54.22s-2.49-16.79-5.93-20.46c-2.25-2.41-8.16-4.88-11.95-6.29"/><path class="cls-2" d="M22.28,101.6l-3.39,2.54c2.54,16.79,8.72,23.76,8.72,23.76s6.17-7,8.72-23.76l-3.66-2.54"/><path class="cls-2" d="M22.28,96.31v5.29c0,1.55,2.33,2.81,5.2,2.81h0c2.87,0,5.19-1.26,5.19-2.81V96.3"/><path class="cls-2" d="M12.91,79.64a33.6,33.6,0,0,0,1.57,7.77c2.76,8,8.19,9.77,13,9.77,6.33,0,13.75-3.12,14.71-19.39"/><path class="cls-3" d="M45.27,72.83c-.36,5.45-.9,5-.9,5H42.19l-4.63-5Z"/><circle class="cls-4" cx="21.23" cy="77.68" r="2.02"/><circle class="cls-4" cx="33.73" cy="77.68" r="2.02"/><line class="cls-2" x1="26.5" y1="84.8" x2="28.45" y2="84.8"/><line class="cls-2" x1="24.07" y1="89.97" x2="30.88" y2="89.97"/><path class="cls-2" d="M31.71,120.81l-2.15-6.9.72-3.31s-.78-2.34-2.67-2.34-2.67,2.34-2.67,2.34l.72,3.31-2.15,6.9a29,29,0,0,0,4.1,7.09A29.41,29.41,0,0,0,31.71,120.81Z"/><path class="cls-2" d="M44.37,77.79a6.25,6.25,0,0,1,1,4.69,5.67,5.67,0,0,1-4.91,4.93"/><path class="cls-2" d="M14.48,87.41a5.7,5.7,0,0,1-4.87-4.93A6.32,6.32,0,0,1,11,77.26"/><path class="cls-3" d="M9.79,72.83a22.66,22.66,0,0,0,.77,3.87l2.35,2.94s3.26-4,3.84-6.81Z"/><path class="cls-2" d="M46.08,68.35A25,25,0,0,0,42.7,55.16c-4.17-6.79-10-7.47-14.87-7.47S17.14,48.37,13,55.16A25.05,25.05,0,0,0,9.58,68.35a25.87,25.87,0,0,0-1.13,4.48H47.21A25.87,25.87,0,0,0,46.08,68.35Z"/><path class="cls-2" d="M106.63,104.52s-9.49,2.57-13.32,6.18-6.6,20.17-6.6,20.17H146s-2.77-16.55-6.6-20.17-13.33-6.18-13.33-6.18"/><path class="cls-2" d="M110.8,101.6l-4.17,2.92c2.84,16.56,9.72,23.43,9.72,23.43s6.88-6.87,9.72-23.43l-4.88-2.92"/><path class="cls-2" d="M120.92,121l-2.4-6.81.8-3.26s-.86-2.31-3-2.31-3,2.31-3,2.31l.8,3.26-2.4,6.81a29,29,0,0,0,4.57,7A28.63,28.63,0,0,0,120.92,121Z"/><rect class="cls-2" x="95.85" y="124.4" width="11.8" height="6.47"/><rect class="cls-2" x="125.44" y="124.4" width="11.8" height="6.47"/><path class="cls-2" d="M110.8,96.31v5.29c0,1.55,2.32,2.81,5.2,2.81h0c2.87,0,5.19-1.26,5.19-2.81V96.3"/><path class="cls-2" d="M101.43,79.64A33.6,33.6,0,0,0,103,87.41c2.76,8,8.19,9.77,13,9.77,6.33,0,13.74-3.12,14.71-19.39"/><path class="cls-3" d="M133.79,72.83c-.36,5.45-.9,5-.9,5h-2.18l-4.63-5Z"/><circle class="cls-4" cx="109.75" cy="77.68" r="2.02"/><circle class="cls-4" cx="122.25" cy="77.68" r="2.02"/><line class="cls-2" x1="115.02" y1="84.8" x2="116.97" y2="84.8"/><line class="cls-2" x1="119.4" y1="89.97" x2="112.59" y2="89.97"/><path class="cls-2" d="M132.89,77.79a6.25,6.25,0,0,1,1,4.69A5.67,5.67,0,0,1,129,87.41"/><path class="cls-2" d="M103,87.41a5.7,5.7,0,0,1-4.87-4.93,6.32,6.32,0,0,1,1.4-5.22"/><path class="cls-3" d="M98.31,72.83a22.66,22.66,0,0,0,.77,3.87l2.35,2.94s3.26-4,3.84-6.81Z"/><path class="cls-2" d="M134.6,68.35a25,25,0,0,0-3.38-13.19c-4.17-6.79-10-7.47-14.87-7.47s-10.69.68-14.86,7.47A24.94,24.94,0,0,0,98.1,68.35,25.87,25.87,0,0,0,97,72.83h38.76A25.87,25.87,0,0,0,134.6,68.35Z"/></g></g></svg>