<svg xmlns="http://www.w3.org/2000/svg" xmlns:xlink="http://www.w3.org/1999/xlink" width="48" height="52" viewBox="0 0 48 52">
  <defs>
    <clipPath id="clip-path">
      <path id="Clip_5" data-name="Clip 5" d="M0,0H48V52H0Z" fill="none"/>
    </clipPath>
  </defs>
  <g id="Group_6" data-name="Group 6" clip-path="url(#clip-path)">
    <path id="Fill_4" data-name="Fill 4" d="M35.842,52H13.288a.851.851,0,0,1-.851-.851V40.193a.852.852,0,0,1,.851-.851h1.175L11.724,30.81H9.765a9.826,9.826,0,0,1-6.819-2.732A9.392,9.392,0,0,1,0,21.407a9.566,9.566,0,0,1,8.652-9.686A12.208,12.208,0,0,1,32.175,7.646a5.552,5.552,0,0,1,3.072-.925c.171,0,.344.008.516.023A5.575,5.575,0,0,1,40.561,14,8.44,8.44,0,0,1,48,22.181a8.275,8.275,0,0,1-2.4,6A8.751,8.751,0,0,1,39.38,30.81H37.406l-2.74,8.532h1.175a.852.852,0,0,1,.851.851V51.15A.852.852,0,0,1,35.842,52ZM24.565,41.554a4.18,4.18,0,1,0,4.181,4.18A4.185,4.185,0,0,0,24.565,41.554Zm6.806,0a1.154,1.154,0,1,0,1.155,1.154A1.156,1.156,0,0,0,31.37,41.555ZM20.3,36.945h8.524a.848.848,0,0,1,.81.592l.391,1.214a.846.846,0,0,0,.81.591h2.036l2.741-8.533h-22.1l2.74,8.533h2.037a.85.85,0,0,0,.811-.591l.39-1.214A.848.848,0,0,1,20.3,36.945Z" fill="#fff"/>
  </g>
</svg>
