<svg id="Group_3" data-name="Group 3" xmlns="http://www.w3.org/2000/svg" xmlns:xlink="http://www.w3.org/1999/xlink" width="32" height="35" viewBox="0 0 32 35">
  <defs>
    <clipPath id="clip-path">
      <path id="Clip_2" data-name="Clip 2" d="M0,0H32V35H0Z" fill="none"/>
    </clipPath>
  </defs>
  <path id="Clip_2-2" data-name="Clip 2" d="M0,0H32V35H0Z" fill="none"/>
  <g id="Group_3-2" data-name="Group 3" clip-path="url(#clip-path)">
    <path id="Fill_1" data-name="Fill 1" d="M23.894,35H8.858a.57.57,0,0,1-.567-.572V27.052a.57.57,0,0,1,.567-.572h.784L7.816,20.736H6.51A6.451,6.451,0,0,1,1.636,9.992a6.334,6.334,0,0,1,4.132-2.1A8.209,8.209,0,0,1,8.252,2.3a8.081,8.081,0,0,1,10.253-.858,8.2,8.2,0,0,1,2.944,3.7A3.683,3.683,0,0,1,23.5,4.522c.113,0,.227.005.341.015a3.761,3.761,0,0,1,3.2,4.883,5.607,5.607,0,0,1,3.487,1.809A5.7,5.7,0,0,1,32,14.929a5.6,5.6,0,0,1-1.62,4.061,5.811,5.811,0,0,1-4.126,1.746H24.936L23.11,26.48h.784a.57.57,0,0,1,.567.572v7.375A.57.57,0,0,1,23.894,35Zm-7.519-7.032a2.813,2.813,0,1,0,2.787,2.813A2.8,2.8,0,0,0,16.375,27.968Zm4.538,0a.777.777,0,1,0,.77.777A.774.774,0,0,0,20.913,27.968Zm-7.378-3.1h5.683a.566.566,0,0,1,.54.4l.259.817a.567.567,0,0,0,.541.4h1.357l1.827-5.744H9.01l1.826,5.744h1.358a.565.565,0,0,0,.54-.4l.26-.817A.567.567,0,0,1,13.535,24.866Z" fill="#7bc9ee"/>
  </g>
</svg>
