<svg id="Group_3" data-name="Group 3" xmlns="http://www.w3.org/2000/svg" width="20" height="13" viewBox="0 0 20 13">
  <path id="Fill_1" data-name="Fill 1" d="M19.305,13H.7a.708.708,0,0,1-.7-.719V.571A.765.765,0,0,1,.013.45c0-.01,0-.02.007-.029L.023.4A.577.577,0,0,1,.047.326C.052.311.058.294.065.28S.088.231.1.2L.112.19A.2.2,0,0,1,.125.169.7.7,0,0,1,.2.074L.218.058.226.051A.515.515,0,0,1,.283,0l9.3.007h.826L19.718,0c.015.012.03.026.044.039l.017.016.009.009L19.8.073a.678.678,0,0,1,.078.1l.014.024,0,.008a.641.641,0,0,1,.041.078c.006.014.012.029.017.044a.606.606,0,0,1,.024.081l0,.011a.218.218,0,0,1,.007.032A.691.691,0,0,1,20,.579v11.7A.708.708,0,0,1,19.305,13ZM1.39,1.583v9.977H18.61V1.584L10.241,7.423a.414.414,0,0,1-.233.074.4.4,0,0,1-.232-.074Z" fill="#fff"/>
</svg>
