<?xml version="1.0" encoding="utf-8"?>
<!-- Generator: Adobe Illustrator 24.0.3, SVG Export Plug-In . SVG Version: 6.00 Build 0)  -->
<svg version="1.1" id="Group_3" xmlns="http://www.w3.org/2000/svg" xmlns:xlink="http://www.w3.org/1999/xlink" x="0px" y="0px"
	 viewBox="0 0 164 25" style="enable-background:new 0 0 164 25;" xml:space="preserve">
<style type="text/css">
	.st0{fill:#FFFFFF;}
	.st1{fill:none;stroke:#FFFFFF;stroke-width:0.3;stroke-miterlimit:10;}
	.st2{font-family:'HelveticaNeueLTPro-Lt';}
	.st3{font-size:4.4335px;}
</style>
<path id="Fill_1" class="st0" d="M147.8,25c-1.9,0-3.8-0.7-5.1-2.1c-1.4-1.3-2.1-3.2-2.1-5.1v-16c0-1,0.8-1.7,1.7-1.8
	c1,0,1.8,0.8,1.8,1.8v16c0,1,0.4,1.9,1.1,2.6c0.7,0.7,1.7,1.1,2.7,1.1c2,0,3.7-1.7,3.7-3.7v-16c0-1,0.8-1.7,1.8-1.8
	c1,0,1.7,0.8,1.7,1.8v16C155,21.8,151.8,25,147.8,25C147.8,25,147.8,25,147.8,25z M131.1,25c-0.6,0-1.2-0.3-1.5-0.9l-5.7-9.9h-2v9
	c0,0.9-0.8,1.7-1.7,1.7c-1,0-1.7-0.7-1.8-1.7v-9h-1.9c-0.9,0-1.7-0.7-1.7-1.7c0,0,0,0,0,0c0-1,0.8-1.7,1.7-1.8h1.9v-9
	c0-1,0.8-1.7,1.8-1.8h3.6c4,0,7.2,3.2,7.2,7.1c0,0,0,0,0,0c0,2.5-1.4,4.8-3.6,6.1l5.2,9.1c0.2,0.3,0.2,0.6,0.2,0.9
	C132.8,24.2,132,25,131.1,25C131.1,25,131.1,25,131.1,25z M121.8,3.6v7.3h1.9c1,0,1.9-0.4,2.6-1c0.7-0.7,1.1-1.6,1.1-2.5
	c0-2-1.7-3.7-3.7-3.7L121.8,3.6z M100.8,25c-1.9,0-3.8-0.7-5.1-2.1c-1.4-1.3-2.1-3.2-2.1-5.1V7.3c0-1.9,0.8-3.7,2.1-5.1
	c1.4-1.3,3.2-2.1,5.1-2.1c4,0,7.2,3.2,7.2,7.1c0,0,0,0,0,0v10.6C107.9,21.8,104.7,25,100.8,25C100.8,25,100.8,25,100.8,25z
	 M100.8,3.6c-1,0-2,0.4-2.7,1.1C97.4,5.3,97,6.3,97,7.3v10.6c0,1,0.4,1.9,1.1,2.6c0.7,0.7,1.7,1.1,2.7,1.1c2,0,3.7-1.7,3.7-3.7
	c0,0,0,0,0,0V7.3C104.5,5.2,102.8,3.6,100.8,3.6C100.8,3.6,100.8,3.6,100.8,3.6L100.8,3.6z M67.2,25c-0.8,0-1.5-0.5-1.7-1.2
	l-1.7-5.4h-6.5l-1.6,5.4C55.4,24.5,54.7,25,54,25c-0.9,0-1.7-0.7-1.7-1.7c0,0,0,0,0-0.1c0-0.2,0-0.3,0.1-0.5l1.3-4.4h-1.6
	c-1,0-1.7-0.8-1.7-1.8c0-0.9,0.7-1.7,1.7-1.7c0,0,0,0,0,0h2.6l4.1-13.6C59,0.4,60-0.1,60.9,0.2c0.5,0.2,1,0.6,1.1,1.1l6.8,21.4
	c0,0.2,0.1,0.3,0.1,0.5C68.9,24.2,68.1,25,67.2,25z M60.5,7.7L58.3,15h4.4L60.5,7.7z M42.4,25c-1,0-1.7-0.7-1.8-1.7V6.7
	c0.2-1.5-0.9-2.9-2.4-3.1c-0.1,0-0.3,0-0.4,0c-1.6,0-2.9,1.2-2.9,2.7c0,0.1,0,0.3,0,0.4v14.9h1.4c1,0,1.8,0.8,1.8,1.8
	c0,1-0.8,1.7-1.8,1.7H30c-1,0-1.7-0.7-1.8-1.7c0-1,0.8-1.7,1.8-1.8h1.4V6.7c0.2-1.5-0.9-2.9-2.4-3.1c-0.1,0-0.3,0-0.4,0
	c-1.6,0-2.9,1.2-2.9,2.7c0,0.1,0,0.3,0,0.4v16.6c0,1-0.8,1.7-1.7,1.7c-1,0-1.7-0.8-1.7-1.7V6.7c0-1.8,0.6-3.5,1.8-4.7
	c1.2-1.2,2.8-1.9,4.5-1.9c1.7,0,3.4,0.7,4.6,2c0-0.1,0.1-0.1,0.1-0.2c1.2-1.2,2.8-1.8,4.5-1.8c1.7,0,3.3,0.6,4.5,1.8
	c1.2,1.3,1.9,3,1.9,4.8v16.6C44.2,24.2,43.4,25,42.4,25C42.5,25,42.5,25,42.4,25z M7.2,25H3.4c-0.9,0-1.7-0.7-1.7-1.7c0,0,0,0,0,0
	c0-1,0.8-1.7,1.7-1.8h3.9c1.1,0,2.1-0.3,3-1c0.7-0.6,1.2-1.6,1.2-2.5c0-1-0.4-2-1.2-2.7c-0.8-0.7-1.8-1.1-2.9-1.1
	c-1.9,0-3.7-0.7-5.1-2C0.8,11,0,9.2,0,7.3c0-1.9,0.8-3.7,2.1-5.1c1.4-1.4,3.2-2.1,5.1-2.1h4.1c1,0,1.7,0.8,1.7,1.8
	c0,0.9-0.7,1.7-1.7,1.7c0,0,0,0,0,0H7.2c-1,0-2,0.4-2.7,1.1C3.9,5.3,3.5,6.3,3.5,7.3c0,2,1.6,3.6,3.6,3.6c0.1,0,0.1,0,0.2,0
	c1.9,0,3.8,0.7,5.2,1.9C14,14,14.9,16,14.9,18c0,2-0.9,3.9-2.4,5.2C11,24.4,9.1,25,7.2,25L7.2,25z M80.7,25c-1,0-1.7-0.8-1.7-1.8
	V3.4h-2.9c-0.9,0-1.7-0.8-1.7-1.7c0-1,0.8-1.7,1.7-1.7h9.2c1,0,1.7,0.8,1.7,1.8c0,0.9-0.7,1.7-1.7,1.7c0,0,0,0,0,0h-2.8v19.8
	C82.4,24.2,81.7,25,80.7,25L80.7,25z"/>
<circle class="st1" cx="160.3" cy="21.6" r="3.1"/>
<text transform="matrix(1 0 0 1 158.8466 22.9984)" class="st0 st2 st3">R</text>
</svg>
