<svg xmlns="http://www.w3.org/2000/svg" xmlns:xlink="http://www.w3.org/1999/xlink" width="97.065" height="15.825" viewBox="0 0 97.065 15.825">
  <defs>
    <clipPath id="clip-path">
      <path id="Clip_2" data-name="Clip 2" d="M0,0H97.065V15.825H0Z" transform="translate(0 0.001)" fill="none"/>
    </clipPath>
  </defs>
  <g id="Group_3" data-name="Group 3" transform="translate(0 0)">
    <path id="Clip_2-2" data-name="Clip 2" d="M0,0H97.065V15.825H0Z" transform="translate(0 0.001)" fill="none"/>
    <g id="Group_3-2" data-name="Group 3" clip-path="url(#clip-path)">
      <path id="Fill_1" data-name="Fill 1" d="M82.08,15.825a1.123,1.123,0,0,1-.941-.537l-3.56-6.25H76.3V14.75a1.077,1.077,0,0,1-1.076,1.075,1.106,1.106,0,0,1-1.108-1.075V9.037h-1.21a1.064,1.064,0,0,1-1.075-1.075,1.094,1.094,0,0,1,1.075-1.11h1.21V1.175A1.137,1.137,0,0,1,75.225.067H77.51A4.46,4.46,0,0,1,80.694,1.39,4.522,4.522,0,0,1,82.012,4.6a4.359,4.359,0,0,1-2.251,3.83l3.259,5.746a1.078,1.078,0,0,1,.135.572A1.064,1.064,0,0,1,82.08,15.825ZM76.3,2.251v4.6H77.51A2.236,2.236,0,0,0,79.829,4.6,2.338,2.338,0,0,0,77.51,2.251ZM63.1,15.825a4.517,4.517,0,0,1-4.536-4.536V4.6A4.517,4.517,0,0,1,63.1.067,4.459,4.459,0,0,1,66.28,1.39,4.519,4.519,0,0,1,67.6,4.6v6.687A4.524,4.524,0,0,1,66.28,14.5,4.459,4.459,0,0,1,63.1,15.825Zm0-13.574A2.327,2.327,0,0,0,60.744,4.6v6.687a2.336,2.336,0,1,0,4.671,0V4.6A2.337,2.337,0,0,0,63.1,2.251ZM26.576,15.825a1.093,1.093,0,0,1-1.108-1.075V4.233a1.765,1.765,0,0,0-1.781-1.982,1.783,1.783,0,0,0-1.814,1.982V13.64h.906a1.124,1.124,0,0,1,1.109,1.109,1.093,1.093,0,0,1-1.109,1.075h-4a1.093,1.093,0,0,1-1.108-1.075,1.123,1.123,0,0,1,1.108-1.109h.907V4.233a1.764,1.764,0,0,0-1.78-1.982,1.784,1.784,0,0,0-1.815,1.982V14.75a1.091,1.091,0,0,1-2.182,0V4.233a4,4,0,0,1,4-4.166A4.036,4.036,0,0,1,20.8,1.31c0-.033.032-.067.061-.1l0-.005A3.95,3.95,0,0,1,23.686.067a3.886,3.886,0,0,1,2.8,1.151,4.252,4.252,0,0,1,1.163,3.015V14.75A1.063,1.063,0,0,1,26.576,15.825Zm65.986,0a4.517,4.517,0,0,1-4.535-4.535V1.175A1.093,1.093,0,0,1,89.1.067a1.124,1.124,0,0,1,1.109,1.109V11.289a2.335,2.335,0,1,0,4.67,0V1.175A1.123,1.123,0,0,1,95.989.067a1.1,1.1,0,0,1,1.076,1.109V11.289A4.523,4.523,0,0,1,95.747,14.5,4.463,4.463,0,0,1,92.562,15.824Zm-42.031,0a1.094,1.094,0,0,1-1.076-1.109V2.183H47.641a1.076,1.076,0,0,1-1.075-1.075A1.106,1.106,0,0,1,47.641,0h5.781A1.093,1.093,0,0,1,54.5,1.108a1.064,1.064,0,0,1-1.075,1.075H51.64V14.715A1.124,1.124,0,0,1,50.531,15.824Zm-8.467,0a1.119,1.119,0,0,1-1.076-.773l-1.04-3.393h-4.1l-1.008,3.393a1.08,1.08,0,0,1-1.04.773,1.069,1.069,0,0,1-1.076-1.109.923.923,0,0,1,.034-.3l.839-2.755h-.973a1.094,1.094,0,0,1-1.075-1.109,1.064,1.064,0,0,1,1.075-1.075h1.612L36.79.839a1.088,1.088,0,0,1,2.083,0l4.234,13.574a.972.972,0,0,1,.032.3A1.108,1.108,0,0,1,42.064,15.824ZM37.865,4.9,36.521,9.474h2.753ZM4.536,15.824H2.117a1.063,1.063,0,0,1-1.075-1.075A1.093,1.093,0,0,1,2.117,13.64H4.536A2.871,2.871,0,0,0,6.384,13a2.143,2.143,0,0,0,.739-1.614A2.094,2.094,0,0,0,6.35,9.71a2.866,2.866,0,0,0-1.814-.673A4.467,4.467,0,0,1,1.343,7.76,4.285,4.285,0,0,1,0,4.6,4.517,4.517,0,0,1,4.536.066H7.123A1.094,1.094,0,0,1,8.2,1.175,1.064,1.064,0,0,1,7.123,2.251H4.536A2.327,2.327,0,0,0,2.183,4.6,2.253,2.253,0,0,0,4.536,6.853,4.888,4.888,0,0,1,7.795,8.063a4.351,4.351,0,0,1,1.511,3.325,4.264,4.264,0,0,1-1.511,3.293A5.011,5.011,0,0,1,4.536,15.824Z" transform="translate(0 0.001)" fill="#8b989e"/>
    </g>
  </g>
</svg>
